<svg width="43" height="53" viewBox="0 0 43 53" fill="none" xmlns="http://www.w3.org/2000/svg">
<path fill-rule="evenodd" clip-rule="evenodd" d="M21.0412 15.2861C19.6351 15.5956 18.6402 16.1687 17.6067 17.2643C16.8872 18.0269 16.3234 19.0498 16.0675 20.0562C15.8727 20.8226 15.8721 22.3078 16.0662 23.1311C16.6014 25.4011 18.4682 27.2843 20.7691 27.8751C21.5998 28.0884 23.1227 28.0888 23.9445 27.8758C25.4537 27.4848 26.8196 26.5227 27.6693 25.2525C28.5516 23.9333 28.8776 22.7382 28.7762 21.1958C28.6909 19.9008 28.3894 19.0063 27.6918 17.9791C26.2521 15.859 23.5003 14.7448 21.0412 15.2861ZM36.8342 30.5716C35.3009 32.9156 33.9969 34.8334 33.9363 34.8334C33.8757 34.8334 31.6418 34.1027 28.9721 33.2095C26.3025 32.3164 23.8371 31.5399 23.4935 31.4842C21.052 31.0879 18.6281 31.9787 16.8664 33.9196C16.6383 34.1709 15.1158 35.9299 13.4831 37.8286C11.8503 39.7273 10.484 41.2922 10.4467 41.3064C10.4095 41.3205 8.87145 40.1695 7.02892 38.7487L3.67892 36.1655L3.42509 36.487C3.28548 36.6637 2.86421 37.2057 2.48895 37.6913L1.80664 38.574L6.29615 42.0341C8.76545 43.9373 10.8129 45.4944 10.8461 45.4944C10.8792 45.4944 11.8389 44.4114 12.9785 43.0876L15.0507 40.6808L15.0769 46.6412L15.1031 52.6018H22.3668H29.6304L29.5931 45.0629C29.566 39.5586 29.5227 37.4039 29.4325 37.0791C29.3647 36.8344 29.3252 36.6181 29.3449 36.5984C29.3645 36.5787 30.6792 36.9962 32.2665 37.526C33.8537 38.0558 35.1904 38.4766 35.2368 38.4611C35.2833 38.4456 36.8663 36.0815 38.7546 33.2076L42.1881 27.9823L40.9321 27.1434C40.2413 26.6821 39.6638 26.3058 39.6489 26.3072C39.634 26.3087 38.3674 28.2277 36.8342 30.5716Z" fill="#BE925A"/>
<path d="M4.94781 14.9327V13.4097V11.8867H6.47081H7.99381V13.4097V14.9327H6.47081H4.94781Z" fill="#ECDFCE"/>
<path d="M4.94781 19.1699V18.5743V17.9787H6.47081H7.99381V19.9966V22.0145L6.85156 22.0665C5.33313 22.1354 4.86627 22.3089 4.07573 23.0982C3.32713 23.8455 3.07157 24.4718 3.07796 25.543C3.08538 26.7836 3.72829 27.8281 4.86313 28.4434C5.46055 28.7673 5.57112 28.7921 6.42004 28.7915C7.14063 28.7911 7.43426 28.7447 7.80862 28.5721C8.81512 28.108 9.61114 27.0551 9.77248 25.9745L9.84447 25.4922H11.356H12.8674V25.8313C12.8674 26.4011 12.4868 27.6984 12.1084 28.4186C10.9407 30.6407 8.46818 32.0264 5.97167 31.8579C4.39445 31.7515 3.06283 31.13 1.88525 29.9509C0.950531 29.015 0.384583 27.9473 0.118566 26.618C-0.490839 23.573 1.2995 20.5001 4.32612 19.3966L4.94781 19.1699Z" fill="#ECDFCE"/>
<path d="M31.7595 1.33128C32.2335 1.10384 32.917 0.853663 33.2785 0.775279C36.4789 0.0816019 39.7223 1.96444 40.7506 5.1131C41.1388 6.30155 41.1405 7.82161 40.755 9.00112C40.4724 9.86598 39.9403 10.7778 39.3125 11.4726C38.7802 12.0617 37.5724 12.8412 36.7865 13.1028L36.1188 13.3249V13.9259V14.5268H34.5958H33.0728V12.5089V10.491L34.2151 10.439C35.7335 10.3701 36.2004 10.1966 36.9909 9.40736C37.7473 8.65205 37.9972 8.0329 37.9849 6.94365C37.9783 6.36206 37.9191 6.09645 37.6931 5.63447C36.3375 2.86393 32.4004 3.10984 31.4101 6.0269C31.3194 6.29414 31.2452 6.62534 31.2452 6.76302V7.0133H29.7222H28.1992V6.70332C28.1992 6.11554 28.5233 4.92973 28.8916 4.17036C29.4384 3.04262 30.6099 1.88291 31.7595 1.33128Z" fill="#ECDFCE"/>
<path d="M33.0728 20.6192V19.0962V17.5732H34.5958H36.1188V19.0962V20.6192H34.5958H33.0728Z" fill="#ECDFCE"/>
</svg>
