<svg width="42" height="43" viewBox="0 0 42 43" fill="none" xmlns="http://www.w3.org/2000/svg">
<path fill-rule="evenodd" clip-rule="evenodd" d="M1.19828 16.1826L0.12564 17.1406L0.0310534 28.1623C-0.0503963 37.618 0.00872042 39.3242 0.44717 40.1715C1.49354 42.195 1.08399 42.1556 21.1285 42.1556H39.3726V39.7315V37.3077L36.3346 37.1648C32.9473 37.0058 31.3665 36.3979 29.5083 34.5397C26.451 31.4827 26.427 25.8935 29.4571 22.6549C31.0641 20.9373 33.2586 20.1579 36.4989 20.1543L39.3726 20.151V17.6878V15.2246H20.8218H2.27092L1.19828 16.1826ZM7.91526 23.6707L11.1184 26.8621L12.3641 25.6456L13.6098 24.4294L17.7007 28.5301C19.9511 30.7858 21.9049 32.6312 22.0432 32.6312C22.1814 32.6312 22.2944 32.04 22.2944 31.3175C22.2944 30.035 22.3217 30.0038 23.4439 30.0038H24.5934V33.6165V37.2292H20.9807H17.368V36.0797C17.368 34.9574 17.3992 34.9302 18.6817 34.9302C19.4043 34.9302 19.9954 34.8166 19.9954 34.6776C19.9954 34.5387 18.5195 32.955 16.7158 31.1579L13.4364 27.8907L12.1907 29.1072L10.945 30.3234L6.86429 26.2328L2.78359 22.1423L3.56459 21.3107C3.99417 20.8535 4.42803 20.4794 4.52852 20.4794C4.62935 20.4794 6.15325 21.9156 7.91526 23.6707ZM33.2967 22.9167C32.0602 23.4704 30.3264 25.2797 29.8683 26.4946C29.0019 28.7926 29.911 31.8942 31.894 33.4066C33.2625 34.4507 35.5793 34.9302 39.253 34.9302H42V28.6901V22.45L38.141 22.4628C35.6453 22.471 33.9338 22.6316 33.2967 22.9167ZM36.7452 28.6901C36.7452 29.9726 36.7179 30.0038 35.5957 30.0038C34.4735 30.0038 34.4462 29.9726 34.4462 28.6901C34.4462 27.4076 34.4735 27.3764 35.5957 27.3764C36.7179 27.3764 36.7452 27.4076 36.7452 28.6901Z" fill="#BE925A"/>
<path d="M7.35083 4.87937L7.25427 2.49828L7.15771 0.117188H9.63536H12.113V1.42564C12.113 3.38306 10.7382 4.8035 8.80247 4.84686L7.35083 4.87937Z" fill="#ECDFCE"/>
<path d="M9.23271 7.30447C12.4152 6.96258 14.7148 4.47278 14.7332 1.34879L14.7404 0.117188H18.5173H22.2942V1.61153C22.2942 3.32953 22.8283 4.5158 24.1535 5.74247C25.5131 7.001 26.3388 7.34257 28.02 7.34257H29.5196V9.96998V12.5974H18.3393H7.15903L7.25493 10.0521L7.35083 7.50678L9.23271 7.30447Z" fill="#ECDFCE"/>
<path d="M28.5179 5.04358C26.3339 5.04358 24.5932 3.30292 24.5932 1.11889V0.117188H27.0564H29.5196V2.58039V5.04358H28.5179Z" fill="#ECDFCE"/>
</svg>
