<svg width="54" height="49" viewBox="0 0 54 49" fill="none" xmlns="http://www.w3.org/2000/svg">
<path fill-rule="evenodd" clip-rule="evenodd" d="M0.660481 22.4017C0.545538 22.4532 0.35745 22.5998 0.242507 22.7276C0.0368644 22.9561 0.0331027 23.1269 0.00593438 33.5068C-0.0129789 40.7196 0.0130399 44.1187 0.0879617 44.2587C0.192978 44.4549 0.324744 44.4636 3.21837 44.4636C6.2141 44.4636 6.24158 44.4616 6.51681 44.2248C6.7631 44.0129 7.08181 42.9754 9.34911 35.0033C12.105 25.3131 12.0394 25.6149 11.583 24.7201C11.4675 24.4937 11.2176 24.19 11.0277 24.0451C10.3963 23.5636 8.02643 22.9077 5.67616 22.5639C4.42841 22.3813 0.956406 22.2691 0.660481 22.4017ZM15.0953 26.7781C15.0599 26.9937 14.0228 30.7201 12.7905 35.0592C11.5582 39.3983 10.5838 42.9832 10.6251 43.0257C10.7505 43.1549 15.9036 45.3347 17.803 46.0619C21.1816 47.3558 24.1463 48.2618 26.4703 48.7108C27.9403 48.9948 29.917 48.9562 31.5383 48.612C35.0401 47.8684 39.8509 46.0535 44.7567 43.6252C48.7249 41.6609 51.2203 40.132 52.5153 38.8719C53.3586 38.0513 53.3987 37.9241 53.1151 36.9692C52.6565 35.4249 50.7905 34.4489 48.5191 34.5652C46.7246 34.657 45.0167 35.2097 39.741 37.4057C34.5566 39.5637 32.8261 40.0977 31.0163 40.0976C29.2014 40.0975 27.0373 39.5268 24.7663 38.4497C23.5812 37.8876 21.6756 36.8393 21.736 36.7827C21.7536 36.7661 22.4265 36.8642 23.2311 37.0008C25.2037 37.3357 27.7059 37.6427 29.6052 37.7827C32.3053 37.9818 33.9885 37.6613 34.8374 36.7866C35.3552 36.2531 35.5625 35.6073 35.4782 34.7907C35.2501 32.5804 32.8806 31.2183 27.8605 30.4115C26.9584 30.2666 26.1108 30.148 25.977 30.148C25.8433 30.148 25.1471 29.8148 24.4301 29.4076C21.1034 27.5179 19.5948 26.9457 16.8958 26.5494C15.2192 26.3032 15.1722 26.3091 15.0953 26.7781Z" fill="#BE925A"/>
<path fill-rule="evenodd" clip-rule="evenodd" d="M25.8394 3.73589C16.4724 7.78669 16.7431 7.65448 16.6349 8.23004C16.6087 8.36969 16.6087 8.5981 16.6349 8.73775C16.7432 9.3138 16.4686 9.17989 25.8657 13.2376C33.802 16.6645 34.6223 17.0039 34.889 16.971C35.053 16.9507 37.8451 15.7813 41.2215 14.3186L47.2607 11.7023L47.2962 17.9087C47.3356 24.8037 47.3029 24.3688 47.8103 24.7299C47.9877 24.8562 48.137 24.895 48.4456 24.895C48.8813 24.895 49.1119 24.7755 49.3878 24.4069C49.5329 24.2129 49.5344 24.1513 49.5531 17.6613L49.572 11.1115L49.411 11.0114C49.3077 10.9472 46.6302 10.577 41.932 9.97734C37.9071 9.46359 34.5116 9.01117 34.3866 8.97197C33.8976 8.81842 33.5815 8.22217 33.6883 7.65441C33.7528 7.31165 34.1792 6.88135 34.5172 6.81812C34.77 6.77076 50.676 8.76504 51.2168 8.91186C51.3863 8.95794 51.5572 9.08221 51.7024 9.2651C52.0002 9.64025 52.2325 9.64429 52.6154 9.28077C53.0764 8.84331 53.1012 8.22564 52.6769 7.75195C52.4736 7.5251 51.4555 7.06687 43.8148 3.76332C37.8352 1.17803 35.0841 0.0219516 34.8626 0.00153525C34.5684 -0.0256157 33.8481 0.272477 25.8394 3.73589ZM23.4993 14.9649C23.4372 15.0395 23.4214 15.7187 23.4388 17.5701C23.462 20.0557 23.4636 20.0785 23.6484 20.6232C24.4236 22.9084 27.0858 24.808 30.6218 25.5994C32.2064 25.954 32.8516 26.0189 34.7916 26.0189C36.7315 26.0189 37.3768 25.954 38.9613 25.5994C42.4911 24.8095 45.1158 22.9402 45.9229 20.6416L46.122 20.0744L46.1456 17.6155C46.1708 14.9961 46.1561 14.864 45.8401 14.864C45.7453 14.864 43.4868 15.8069 40.8213 16.9594C38.1557 18.1118 35.7978 19.1008 35.5814 19.157C35.0812 19.287 34.502 19.2872 34.0072 19.1575C33.7938 19.1016 31.4374 18.1127 28.7707 16.9599C26.104 15.8072 23.8458 14.864 23.7527 14.864C23.6595 14.864 23.5454 14.9094 23.4993 14.9649Z" fill="#ECDFCE"/>
</svg>
