<svg width="65" height="51" viewBox="0 0 65 51" fill="none" xmlns="http://www.w3.org/2000/svg">
<path fill-rule="evenodd" clip-rule="evenodd" d="M15.2118 1.42704C14.448 1.71083 13.9454 2.16152 13.5739 2.896C13.1411 3.75203 0.101238 46.4369 0.011781 47.2909C-0.111664 48.4698 0.748788 49.8151 1.94609 50.3154C2.53464 50.5614 8.30409 50.5966 9.09669 50.3592C9.78998 50.1515 10.6519 49.3543 10.9078 48.6843C11.0246 48.3788 11.7556 45.8355 12.5326 43.0324L13.945 37.9359L21.0178 37.9033L28.0904 37.8707L29.722 43.3158C31.4099 48.9493 31.5919 49.4001 32.4045 49.9665C33.1132 50.4603 33.516 50.5078 36.9993 50.5078C40.7089 50.5078 40.8841 50.4791 41.7369 49.7304C42.4427 49.1106 42.737 48.4412 42.728 47.4754C42.7213 46.7574 41.8828 43.9583 36.0669 25.2376C32.4074 13.4585 29.3214 3.57337 29.209 3.27076C28.9498 2.57242 28.3833 1.92525 27.7211 1.57083C27.2126 1.2988 27.105 1.29362 21.4547 1.26885C16.6939 1.24801 15.6208 1.27517 15.2118 1.42704ZM21.4667 12.4761C21.6772 12.7695 26.3824 28.9112 26.3824 29.3399C26.3824 29.5108 25.7518 29.5335 21.0125 29.5335C16.8257 29.5335 15.6426 29.499 15.6426 29.3769C15.6426 29.2908 16.6215 25.4788 17.8181 20.9056C19.2972 15.2525 20.0694 12.5096 20.2304 12.3368C20.5527 11.9908 21.1684 12.0601 21.4667 12.4761Z" fill="#BE925A"/>
<path d="M48.5575 0.594612C48.766 0.374382 49.0503 0.145055 49.1893 0.0850382C49.3283 0.0250213 50.4839 -0.0117469 51.7573 0.00341529L54.0725 0.0309597L54.5686 0.563025L55.0646 1.09522V5.51448V9.93386L59.2252 9.97329C63.1976 10.0109 63.4015 10.0245 63.7345 10.2732C64.5525 10.8843 64.6009 11.045 64.64 13.2751C64.6797 15.5355 64.5859 15.921 63.8686 16.4476C63.5295 16.6966 63.3079 16.7124 59.32 16.7725L55.1278 16.8357L55.0646 21.2805C55.0044 25.5242 54.9896 25.7414 54.7398 26.0818C54.2303 26.7759 53.8187 26.8802 51.59 26.8802C49.3613 26.8802 48.9496 26.7759 48.4402 26.0818C48.1904 25.7414 48.1756 25.5242 48.1153 21.2805L48.0521 16.8357L43.8599 16.7725C39.872 16.7124 39.6504 16.6966 39.3113 16.4476C38.594 15.921 38.5002 15.5355 38.5399 13.2751C38.5791 11.045 38.6275 10.8843 39.4455 10.2732C39.7784 10.0245 39.9823 10.0109 43.9501 9.97329L48.1061 9.93399L48.1423 5.46444L48.1785 0.994893L48.5575 0.594612Z" fill="#ECDFCE"/>
</svg>
