<svg width="41" height="51" viewBox="0 0 41 51" fill="none" xmlns="http://www.w3.org/2000/svg">
<path fill-rule="evenodd" clip-rule="evenodd" d="M18.5871 0.061265C16.3728 0.410445 14.4959 1.3534 12.8645 2.93643C11.4663 4.29322 10.5252 5.89862 10.0205 7.78825C9.79554 8.63054 9.76611 8.92753 9.76611 10.3594C9.76611 11.7878 9.79584 12.0892 10.0184 12.922C11.0038 16.6096 13.8493 19.4551 17.5369 20.4405C18.3697 20.6631 18.6711 20.6928 20.0995 20.6928C21.5314 20.6928 21.8284 20.6634 22.6706 20.4384C26.3563 19.4539 29.1973 16.6103 30.1799 12.922C30.3982 12.1026 30.4321 11.7713 30.4368 10.4084C30.4413 9.11718 30.405 8.69068 30.2323 8.00469C29.7604 6.12987 28.9288 4.60776 27.6299 3.24175C25.6412 1.15011 23.2891 0.0916796 20.4429 0.00740163C19.7414 -0.0133 18.9063 0.0109336 18.5871 0.061265ZM10.7293 20.7273C9.74217 21.0598 8.21437 21.8303 7.22923 22.4925C3.20086 25.2 0.620621 29.4457 0.0839496 34.2496C0.0120337 34.8931 -0.0142605 37.0706 0.00732409 40.5778C0.039701 45.8298 0.0442142 45.9352 0.259177 46.5057C0.875024 48.1399 1.97868 49.2577 3.5992 49.8886L4.25448 50.1437L11.4551 50.1718L18.6557 50.2L18.5907 49.6322C18.3504 47.5343 16.9859 45.8298 14.9408 45.0732C14.4005 44.8732 14.1343 44.8544 11.1223 44.8029C6.56953 44.7251 6.85445 44.9874 6.85445 40.8721C6.85445 37.7334 6.88633 37.5789 7.61805 37.1676C8.10253 36.8954 8.51283 36.8888 9.01546 37.1452C9.70989 37.4994 9.7978 37.8176 9.7978 39.9753V41.8334L12.2261 41.8766C14.5106 41.9172 14.7054 41.9353 15.5184 42.182C17.2511 42.7079 18.5656 43.5817 19.737 44.986L20.0995 45.4206L20.4632 44.986C21.6341 43.5865 23.052 42.6618 24.8388 42.1323C25.4516 41.9508 25.8652 41.9172 27.973 41.8783L30.4013 41.8334V39.9753C30.4013 38.3445 30.424 38.0725 30.5874 37.7524C30.8032 37.3292 31.4094 36.9477 31.8657 36.9477C32.3592 36.9477 32.9238 37.2923 33.1471 37.73C33.3312 38.0909 33.3446 38.3046 33.3446 40.8721C33.3446 43.4379 33.3311 43.6536 33.1474 44.0136C32.7825 44.7288 32.7219 44.7406 29.0768 44.8029C26.0647 44.8544 25.7985 44.8732 25.2582 45.0732C23.2132 45.8298 21.8487 47.5343 21.6084 49.6322L21.5433 50.2L28.744 50.1718L35.9446 50.1437L36.5999 49.8886C38.2205 49.2577 39.3241 48.1399 39.9398 46.5057C40.1546 45.9357 40.1593 45.8261 40.1929 40.6268C40.2164 37.0122 40.1906 34.9859 40.1118 34.2496C39.4675 28.2289 35.4331 22.9874 29.8099 20.8657L28.8007 20.4848L28.1258 20.9989C23.4329 24.5744 16.8465 24.584 12.1145 21.0224L11.4154 20.4962L10.7293 20.7273ZM18.2845 25.9017C18.7173 26.0373 19.4139 26.4048 19.9278 26.7687C20.0644 26.8653 20.1347 26.8653 20.2712 26.7687C20.8019 26.3929 21.4892 26.0338 21.9637 25.8845C22.7045 25.6514 24.1841 25.659 24.907 25.8997C26.9863 26.5921 28.3418 28.4499 28.3403 30.6052C28.3396 31.7318 28.1122 32.5129 27.5223 33.4156C27.1166 34.0365 21.2077 39.9631 20.7657 40.1926C20.5655 40.2965 20.2657 40.3816 20.0995 40.3816C19.9333 40.3816 19.6336 40.2965 19.4334 40.1926C18.9936 39.9643 13.0855 34.0401 12.6749 33.4156C12.1162 32.5658 11.9291 31.9742 11.8793 30.8988C11.8414 30.0775 11.8691 29.7847 12.0379 29.2309C12.5759 27.4642 14.0093 26.1522 15.8317 25.7587C16.3775 25.6408 17.6969 25.7178 18.2845 25.9017Z" fill="#BE925A"/>
<path d="M14.9928 31.5313C14.4588 30.5055 15.0222 29.1135 16.1278 28.727C16.559 28.5762 17.1152 28.5881 17.5185 28.7566C17.7134 28.8381 18.1951 29.2108 18.589 29.5849C19.8249 30.7589 20.3688 30.7526 21.6552 29.5496C22.4964 28.7628 22.9274 28.5588 23.59 28.6335C24.6298 28.7507 25.3145 29.4672 25.3807 30.5073C25.4116 30.9937 25.3772 31.2091 25.2203 31.5109C25.1103 31.7224 23.9136 32.9988 22.5609 34.3473L20.1013 36.7995L17.6418 34.3473C16.2891 32.9988 15.097 31.7315 14.9928 31.5313Z" fill="#ECDFCE"/>
</svg>
