<svg width="51" height="44" viewBox="0 0 51 44" fill="none" xmlns="http://www.w3.org/2000/svg">
<path fill-rule="evenodd" clip-rule="evenodd" d="M0.523295 0.304661C0.354465 0.407613 0.16331 0.620495 0.0985287 0.777764C0.00893119 0.994931 -0.0130945 5.27428 0.00673859 18.5876L0.0329501 36.1117L0.358451 36.4025L0.683952 36.6933H8.75511H16.8263V39.0292V41.3651L14.9741 41.3962L13.122 41.4273L12.8313 41.7528C12.3325 42.3115 12.4741 43.0769 13.1398 43.4212C13.3907 43.5509 14.986 43.5701 25.5169 43.5697C37.1686 43.5694 37.6172 43.5626 37.9131 43.3822C38.5814 42.9746 38.6088 42.0378 37.9651 41.6051C37.6516 41.3943 37.5204 41.3775 36.1961 41.3775H34.7657V39.0354V36.6933H42.5379H50.31L50.6355 36.4025L50.961 36.1117L50.9867 18.5593C51.015 -0.746491 51.0571 0.599366 50.4162 0.267985C50.1571 0.134037 47.313 0.116795 25.4771 0.117194C1.53976 0.117493 0.821388 0.122974 0.523295 0.304661ZM48.8183 18.4051V34.5007H25.497H2.17572V18.4051V2.30939H25.497H48.8183V18.4051Z" fill="#ECDFCE"/>
<path fill-rule="evenodd" clip-rule="evenodd" d="M4.48928 3.95487C3.8337 4.23971 3.87007 3.40174 3.87007 18.2061C3.87007 33.0684 3.83001 32.177 4.51111 32.4615C4.81389 32.588 7.59899 32.6074 25.4539 32.6074C44.0012 32.6074 46.0804 32.5918 46.3788 32.4503C47.068 32.1232 47.0244 33.0864 47.0244 18.2061C47.0244 3.25962 47.0697 4.23742 46.3626 3.94192C45.8613 3.73242 4.97205 3.74508 4.48928 3.95487ZM29.2284 8.01546C29.5259 8.31396 29.5729 8.45548 29.8289 9.82167C30.0919 11.2243 30.0981 11.3222 29.9457 11.6416C29.741 12.0709 29.2344 12.3263 28.7631 12.2379C28.1807 12.1286 28.018 11.8494 27.7392 10.4806C27.353 8.58434 27.379 8.21599 27.9228 7.88441C28.4082 7.58841 28.8466 7.63236 29.2284 8.01546ZM23.7312 9.12442C24.1518 9.30431 25.8626 11.0629 25.9479 11.403C26.0496 11.808 25.8206 12.3637 25.4619 12.5824C25.0887 12.8099 24.7865 12.8248 24.4207 12.6339C23.9988 12.4135 22.3298 10.6541 22.2532 10.349C22.1475 9.92761 22.3993 9.39052 22.8046 9.17326C23.2197 8.95081 23.3138 8.94582 23.7312 9.12442ZM34.5166 15.6248C41.9367 18.2028 41.8572 18.1672 41.8772 18.9257C41.8828 19.1413 41.8141 19.4296 41.7244 19.5666C41.6252 19.7179 40.9132 20.1575 39.9076 20.6883C38.9982 21.1684 38.254 21.5919 38.254 21.6295C38.254 21.6671 38.7281 22.168 39.3074 22.7425C40.4502 23.8756 40.6459 24.1547 40.6459 24.6499C40.6459 24.9321 40.4861 25.1343 39.4207 26.1997C38.3128 27.3074 38.1614 27.4249 37.841 27.4249C37.3918 27.4249 36.9804 27.1237 35.8143 25.9408C35.3221 25.4415 34.8875 25.033 34.8483 25.033C34.8092 25.033 34.3893 25.7747 33.9152 26.6812C32.985 28.4598 32.7939 28.6731 32.1467 28.6562C31.3926 28.6365 31.4213 28.7001 28.9076 21.4451C27.6447 17.7999 26.5817 14.7158 26.5454 14.5917C26.3853 14.0446 26.964 13.2766 27.5402 13.2718C27.6498 13.2708 30.7892 14.3296 34.5166 15.6248ZM23.4468 14.4606C24.5716 14.683 24.975 14.8042 25.1566 14.9749C25.6921 15.478 25.5212 16.4368 24.8456 16.7191C24.524 16.8534 24.3746 16.843 23.0348 16.5924C21.9083 16.3817 21.5109 16.2659 21.2966 16.0856C20.7271 15.6063 20.862 14.611 21.5363 14.3179C21.9464 14.1396 21.7471 14.1247 23.4468 14.4606ZM29.4103 16.2875C29.4364 16.3561 30.0974 18.2509 30.8792 20.4983C31.661 22.7457 32.3336 24.6468 32.3738 24.723C32.4224 24.8147 32.6611 24.4476 33.0801 23.6369C33.7313 22.377 34.0378 22.0443 34.5481 22.0435C34.9376 22.0428 35.1695 22.2196 36.4757 23.5132C37.4459 24.4741 37.7782 24.7467 37.9151 24.6942C38.0607 24.6382 37.8553 24.3857 36.789 23.3095C35.4413 21.9492 35.2638 21.7185 35.2645 21.3271C35.2653 20.8145 35.6026 20.5018 36.8559 19.852C37.6899 19.4196 38.0291 19.1963 37.9335 19.1428C37.7885 19.0617 29.499 16.163 29.4119 16.163C29.3848 16.163 29.384 16.2191 29.4103 16.2875Z" fill="#BE925A"/>
</svg>
