<svg width="51" height="51" viewBox="0 0 51 51" fill="none" xmlns="http://www.w3.org/2000/svg">
<path d="M19.0527 42.0266L21.9712 42.0234L22.2701 42.0266C22.7684 42.0234 22.8774 42.0234 26.3804 42.0266L29.8928 42.0299V39.6344C29.8928 37.4303 29.9088 37.2076 30.0934 36.8458C30.2225 36.5927 30.4342 36.381 30.6874 36.2519C31.0704 36.0565 31.2617 36.0513 38.0595 36.0513H45.0385V31.1515V26.2515L44.8143 26.4578C44.1181 27.098 43.4855 27.2313 42.8467 26.8724C42.152 26.482 41.8699 25.6339 42.2108 24.9611C42.4372 24.5144 45.4078 21.5281 45.8566 21.296C46.3254 21.0537 46.7409 21.0537 47.2097 21.296C47.6585 21.5281 50.629 24.5144 50.8554 24.9611C51.1964 25.6339 50.9142 26.482 50.2195 26.8724C49.5808 27.2313 48.9482 27.098 48.252 26.4578L48.0278 26.2515V32.0522C48.0278 37.6691 48.0214 37.8653 47.8272 38.246C47.6981 38.4992 47.4864 38.7109 47.2332 38.84C46.8502 39.0354 46.6589 39.0406 39.8611 39.0406H32.8821V41.436C32.8821 43.6401 32.866 43.8628 32.6815 44.2246C32.5524 44.4778 32.3407 44.6894 32.0875 44.8186C31.7047 45.0139 31.513 45.0191 24.815 45.0191H17.9357V47.4145C17.9357 49.6186 17.9196 49.8413 17.7351 50.2031C17.606 50.4563 17.3943 50.668 17.1411 50.7971C16.757 50.9931 16.5686 50.9977 8.96784 50.9977C1.3671 50.9977 1.17867 50.9931 0.794551 50.7971C0.352436 50.5715 0 49.9975 0 49.5031C0 49.0086 0.352436 48.4346 0.794551 48.209C1.16163 48.0218 1.38155 48.0082 4.10627 48.0051C7.00169 48.0019 6.22846 47.9845 6.62624 47.9845H8.22052C8.51945 47.9845 8.39161 47.996 11.434 48.0017L14.9464 48.0084V45.613C14.9464 43.4089 14.9624 43.1862 15.147 42.8244C15.2761 42.5712 15.4878 42.3596 15.741 42.2304C16.108 42.0432 16.3279 42.0297 19.0527 42.0266Z" fill="#ECDFCE"/>
<path d="M7.73467 10.9324C8.08262 10.1801 8.85525 9.53413 9.76508 9.23501C9.90209 9.18997 10.3558 9.16655 10.7732 9.18299C11.6462 9.21737 12.232 9.49209 12.7362 10.1038C12.8987 10.3009 13.5379 11.5099 14.1564 12.7906L15.2812 15.119L19.9715 15.1475C24.5288 15.1753 24.6748 15.1822 25.1249 15.3902C25.7185 15.6647 26.3671 16.3141 26.6376 16.905C26.9322 17.5485 26.9322 18.6826 26.6376 19.3261C26.3671 19.917 25.7185 20.5665 25.1249 20.8409C24.6708 21.0508 24.5511 21.0556 19.0568 21.0831L13.4519 21.1112V23.0271V24.9431L17.1255 26.1661C20.9685 27.4456 21.2835 27.5902 21.8339 28.3284C22.0336 28.5963 22.598 30.156 23.7744 33.6916C25.3469 38.4172 25.4307 38.7077 25.3804 39.263C25.1525 41.2033 23.6652 41.8619 22.5692 42.0265C21.6923 42.1582 20.489 41.2377 19.9969 40.7611C19.8248 40.5128 19.2335 38.8967 18.3999 36.3969L17.0762 32.4269L13.1062 31.1032C10.7773 30.3267 8.98389 29.6738 8.76746 29.5239C8.29097 29.1936 7.83212 28.5499 7.62884 27.9265C7.48486 27.4848 7.47071 26.5781 7.49542 19.4109C7.52283 11.4745 7.52532 11.3849 7.73467 10.9324Z" fill="#BE925A"/>
<path fill-rule="evenodd" clip-rule="evenodd" d="M11.0601 0.089903C9.62065 0.369799 8.12332 1.7629 7.69665 3.21928C6.76878 6.38632 9.42804 9.49687 12.6123 8.96926C15.77 8.44594 17.385 5.03367 15.782 2.27228C14.8027 0.585326 12.9398 -0.275586 11.0601 0.089903Z" fill="#BE925A"/>
<path d="M11.3516 39.882C10.8165 43.09 10.328 45.8689 10.2658 46.0571C10.0822 46.7163 9.25664 48.0246 7.42321 47.9847C5.58979 47.9449 4.75883 46.4001 4.57253 45.6327C4.45784 45.0972 4.50547 44.7448 5.5304 38.5426C6.12367 34.9529 6.63563 31.939 6.66832 31.845C6.71923 31.698 6.81519 31.7348 7.34848 32.106C7.83513 32.4446 8.40559 32.6839 9.98801 33.2132C11.0983 33.5845 12.0782 33.9245 12.1656 33.9688C12.3068 34.0401 12.216 34.699 11.3516 39.882Z" fill="#BE925A"/>
<path d="M0.0539551 18.1162C0.0539551 16.92 0.203618 16.69 2.46232 14.4131C3.54085 13.326 4.43694 12.4365 4.45358 12.4365C4.47032 12.4365 4.48337 15.0035 4.48257 18.1411L4.48118 23.8456L2.49191 21.8454C0.201326 19.5422 0.0539551 19.3169 0.0539551 18.1162Z" fill="#BE925A"/>
</svg>
