<svg width="50" height="50" viewBox="0 0 50 50" fill="none" xmlns="http://www.w3.org/2000/svg">
<path fill-rule="evenodd" clip-rule="evenodd" d="M0.000292797 24.8137C0.00204958 31.6215 2.58862 37.9073 7.3378 42.6451C11.3061 46.6039 16.1135 48.9621 21.911 49.7937C23.3693 50.0029 27.0022 49.9489 28.6453 49.6937C32.7827 49.0511 36.5806 47.4862 39.8044 45.096L40.575 44.5245L42.0719 46.0237C42.8951 46.8483 43.5853 47.5063 43.6057 47.486C43.626 47.4656 44.2446 43.9426 44.9803 39.6571C45.8928 34.3421 46.2827 31.8561 46.2069 31.8364C46.1459 31.8206 42.8722 32.3605 38.9322 33.0361C34.9921 33.7117 31.489 34.312 31.1474 34.37L30.5262 34.4755L31.855 35.8068C32.5858 36.5391 33.1837 37.1672 33.1837 37.2027C33.1837 37.3169 31.5023 38.2306 30.6461 38.5817C28.6667 39.3932 27.241 39.6665 24.9854 39.6665C23.1505 39.6665 22.2508 39.5421 20.6933 39.0729C17.4724 38.1029 14.4086 35.8007 12.6134 33.0016C11.0942 30.6328 10.3817 28.2546 10.2773 25.2041L10.2196 23.5205H5.1098H0L0.000292797 24.8137Z" fill="#BE925A"/>
<path d="M13.0304 3.05345C16.0382 1.42891 19.3534 0.418073 22.6918 0.107513C34.2572 -0.968127 45.0607 6.12089 48.7052 17.1769C49.5282 19.6736 49.8558 21.6074 49.9411 24.4725L49.9999 26.4488H44.8749H39.7499L39.6965 24.8141C39.6671 23.9149 39.571 22.806 39.4828 22.3497C38.3091 16.2797 33.8146 11.7318 27.7926 10.5207C26.2428 10.209 23.5437 10.2096 22.0918 10.5219C20.3239 10.9023 17.9151 11.8803 16.9683 12.6022L16.7383 12.7775L18.0908 14.135L19.4433 15.4926L18.6276 15.6404L3.75786 18.1369C3.73092 18.11 4.31222 14.567 5.04968 10.2637L6.3905 2.43945L7.90446 3.94667L9.41832 5.4539L9.71111 5.21253C10.5901 4.6113 12.4845 3.33775 13.0304 3.05345Z" fill="#BE925A"/>
<path d="M31.3293 26.9372V24.9852V23.0332H33.2813H35.2333V24.9852V26.9372H33.2813H31.3293Z" fill="#ECDFCE"/>
<path d="M23.0334 26.9372V24.9852V23.0332H24.9854H26.9374V24.9852V26.9372H24.9854H23.0334Z" fill="#ECDFCE"/>
<path d="M14.7374 26.9372V24.9852V23.0332H16.6894H18.6414V24.9852V26.9372H16.6894H14.7374Z" fill="#ECDFCE"/>
</svg>
