<svg width="49" height="50" viewBox="0 0 49 50" fill="none" xmlns="http://www.w3.org/2000/svg">
<path fill-rule="evenodd" clip-rule="evenodd" d="M0 29.777C0 39.7833 0.0337832 45.2546 0.0977129 45.5915C0.423678 47.3103 1.81176 48.6984 3.53058 49.0244C4.243 49.1595 44.757 49.1595 45.4694 49.0244C47.1882 48.6984 48.5763 47.3103 48.9023 45.5915C48.9662 45.2546 49 39.7833 49 29.777V14.4775H24.5H0V29.777ZM39.6236 17.7327C40.31 18.0829 40.3868 18.3745 40.386 20.6226C40.3851 22.7396 40.3028 23.7297 39.9938 25.3398C39.636 27.2042 38.6707 29.7734 37.7965 31.1879C37.4765 31.7056 37.0013 31.8955 36.0258 31.8955C35.2769 31.8955 35.2044 31.9114 35.2627 32.063C35.2981 32.1551 35.4167 32.5347 35.5261 32.9066C35.8387 33.9682 35.7688 34.1563 34.6563 35.2499C32.3948 37.4727 29.7659 39.0168 26.5815 39.9924L26.0312 40.1609V41.2C26.0312 42.4545 25.8673 42.8816 25.2681 43.1872C24.8976 43.3762 24.7216 43.3799 15.8867 43.3799C7.05179 43.3799 6.87589 43.3762 6.50532 43.1872C6.08069 42.9706 5.74219 42.4192 5.74219 41.9443C5.74219 41.4695 6.08069 40.9181 6.50532 40.7014C6.87512 40.5128 7.0537 40.5088 15.0216 40.5088H23.1602L23.1604 38.188C23.1606 36.9116 23.2063 35.3719 23.2618 34.7666C23.8785 28.0424 27.9646 22.1146 34.0072 19.178C35.3463 18.5272 36.1971 18.208 37.6113 17.8259C38.8285 17.4971 39.134 17.4829 39.6236 17.7327Z" fill="#BE925A"/>
<path fill-rule="evenodd" clip-rule="evenodd" d="M36.7829 21.0872C33.5416 22.2854 30.6194 24.618 28.7355 27.5108C27.0047 30.1686 26.0351 33.3787 26.032 36.461L26.0312 37.2462L26.6772 37.0067C28.6971 36.2577 30.5513 35.1359 32.1367 33.7038L32.6245 33.263L32.2015 31.9811C31.9689 31.2761 31.7783 30.5915 31.778 30.4599C31.7773 29.9938 32.1184 29.4303 32.5281 29.2214C32.8658 29.049 33.0919 29.0242 34.3297 29.0225L35.7451 29.0207L36.0673 28.29C37.0092 26.1531 37.5928 23.3684 37.4987 21.46L37.4678 20.834L36.7829 21.0872Z" fill="#BE925A"/>
<path fill-rule="evenodd" clip-rule="evenodd" d="M3.45564 0.22603C1.81271 0.548643 0.416131 1.97396 0.0977125 3.65307C0.0417299 3.94802 0 5.75786 0 7.88745V11.6069H24.5H49V7.88745C49 5.75786 48.9583 3.94802 48.9023 3.65307C48.5763 1.93424 47.1882 0.546154 45.4694 0.220201C44.8288 0.0986557 4.07523 0.104298 3.45564 0.22603ZM42.4947 6.05732C42.9193 6.274 43.2578 6.82534 43.2578 7.30022C43.2578 7.7751 42.9193 8.32645 42.4947 8.54311C42.1257 8.73136 41.9447 8.73577 34.6445 8.73577C27.3443 8.73577 27.1633 8.73136 26.7944 8.54311C26.3698 8.32645 26.0312 7.7751 26.0312 7.30022C26.0312 6.83999 26.3699 6.27534 26.774 6.06202C27.1212 5.87874 27.3537 5.87301 34.6244 5.86888C41.9492 5.86477 42.1255 5.86899 42.4947 6.05732ZM7.82831 6.04622C8.24346 6.25801 8.61328 6.84869 8.61328 7.30022C8.61328 8.01101 7.8885 8.73577 7.17773 8.73577C6.70286 8.73577 6.1515 8.39727 5.93486 7.97263C5.69088 7.49441 5.69078 7.10614 5.93462 6.6282C6.2837 5.9441 7.12269 5.68619 7.82831 6.04622ZM13.6662 6.04622C14.0814 6.25801 14.4512 6.84869 14.4512 7.30022C14.4512 8.01101 13.7264 8.73577 13.0156 8.73577C12.5408 8.73577 11.9894 8.39727 11.7727 7.97263C11.5288 7.49441 11.5287 7.10614 11.7725 6.6282C12.1216 5.9441 12.9606 5.68619 13.6662 6.04622ZM20.2891 7.30022C20.2891 6.84869 19.9192 6.25801 19.5041 6.04622C18.7985 5.68619 17.9595 5.9441 17.6104 6.6282C17.3666 7.10614 17.3667 7.49441 17.6106 7.97263C17.8273 8.39727 18.3786 8.73577 18.8535 8.73577C19.5643 8.73577 20.2891 8.01101 20.2891 7.30022Z" fill="#ECDFCE"/>
</svg>
