<svg width="49" height="57" viewBox="0 0 49 57" fill="none" xmlns="http://www.w3.org/2000/svg">
<path fill-rule="evenodd" clip-rule="evenodd" d="M24.5375 0.118827C18.0247 0.799567 11.624 4.84305 8.1229 10.4884C5.68748 14.4155 4.77258 18.052 4.77169 23.8084L4.77147 25.7067L2.64213 29.5793C1.47098 31.7092 0.398489 33.7266 0.258768 34.0623C-0.027667 34.7502 -0.0839332 35.8113 0.128257 36.5195C0.310594 37.1284 0.946166 37.8214 1.60238 38.127C2.09079 38.3545 2.33239 38.3884 3.46748 38.3893L4.77147 38.3904L4.77236 42.3024C4.7728 44.4539 4.82408 46.539 4.88633 46.9357C5.20551 48.9694 6.81935 50.6203 8.82373 50.9637C9.42168 51.0661 9.84617 51.0292 12.2713 50.6634C13.7924 50.4339 15.1743 50.2192 15.3421 50.1863L15.6473 50.1264V53.1971V56.268L15.9233 56.544L16.1993 56.82L25.6062 56.7863C36.0583 56.7489 35.4421 56.7918 37.1216 55.9836C38.7939 55.1789 40.2038 53.7713 41.0035 52.1083C41.7833 50.4864 41.7698 50.6208 41.8115 44.111L41.8492 38.2343L42.8286 37.2218C45.6385 34.3174 47.5534 30.6303 48.4465 26.4048C48.8443 24.5223 48.9501 21.1168 48.6705 19.1912C47.7232 12.6678 44.2826 7.20345 38.8418 3.58134C34.7137 0.833193 29.5835 -0.408652 24.5375 0.118827ZM27.7417 6.8451C27.9541 6.95175 28.2414 7.20878 28.3799 7.41619C28.6041 7.7519 28.6317 7.92847 28.631 9.02538C28.6302 10.3795 28.5207 10.6885 27.8948 11.1011C27.4694 11.3816 26.5758 11.3816 26.1504 11.1011C25.5245 10.6885 25.415 10.3795 25.4142 9.02538C25.4135 7.92847 25.441 7.7519 25.6653 7.41619C25.9558 6.98138 26.5418 6.651 27.0226 6.651C27.2057 6.651 27.5293 6.73834 27.7417 6.8451ZM17.8447 11.0234C18.3625 11.2922 19.606 12.6683 19.6943 13.0703C19.9309 14.1476 19.1839 15.085 18.0888 15.085C17.4657 15.085 17.1546 14.8983 16.2994 14.0114C15.7151 13.4053 15.5484 13.1543 15.4864 12.7872C15.382 12.1693 15.7151 11.4024 16.2224 11.0931C16.6547 10.8297 17.4089 10.7971 17.8447 11.0234ZM37.8228 11.0931C38.3236 11.3985 38.6631 12.1701 38.5613 12.772C38.5031 13.1174 38.3203 13.394 37.7551 13.9933C36.9109 14.8882 36.5866 15.085 35.9563 15.085C34.8717 15.085 34.1426 14.194 34.3449 13.1158C34.4248 12.6898 35.4904 11.4665 36.1228 11.0748C36.5703 10.7977 37.352 10.8061 37.8228 11.0931ZM28.2988 13.6495C31.5307 14.1715 34.1696 16.6246 34.9737 19.8543C35.1676 20.6331 35.1985 21.0147 35.1528 22.0739C35.058 24.2803 34.3138 25.9535 32.7114 27.5637L31.8343 28.4451L31.5647 30.6711C31.2818 33.0066 31.1161 33.7126 30.6943 34.3794C30.3099 34.987 29.4689 35.7107 28.7622 36.0421C28.2115 36.3003 27.9925 36.3373 27.0203 36.3373C25.9905 36.3373 25.8541 36.3107 25.1775 35.9776C24.293 35.5422 23.5129 34.745 23.1096 33.8645C22.8749 33.3518 22.7612 32.7638 22.5181 30.8033L22.2172 28.3766L21.6508 27.8811C19.2813 25.8083 18.2775 22.2454 19.2288 19.2836C19.6678 17.9171 20.2263 17.03 21.3513 15.913C22.1704 15.0998 22.54 14.8233 23.3048 14.4519C25.0002 13.6286 26.5892 13.3734 28.2988 13.6495ZM15.7564 20.1735C16.3729 20.5041 16.5906 20.8851 16.5906 21.6327C16.5906 22.8432 15.9699 23.2974 14.3156 23.2974C12.6612 23.2974 12.0405 22.8432 12.0405 21.6327C12.0405 20.8851 12.2583 20.5041 12.8748 20.1735C13.4212 19.8805 15.21 19.8805 15.7564 20.1735ZM41.13 20.1482C41.7196 20.428 42.0046 20.9117 42.0046 21.6327C42.0046 22.0864 41.941 22.3322 41.7572 22.5901C41.3681 23.1355 40.9 23.2974 39.7128 23.2972C38.5106 23.2971 38.0472 23.125 37.651 22.5319C37.123 21.7416 37.4323 20.5928 38.2891 20.1625C38.8142 19.8986 40.5852 19.8897 41.13 20.1482Z" fill="#BE925A"/>
<path d="M27.0337 33.0633C26.3396 33.0633 26.0553 32.6418 25.9295 31.4264L25.8691 30.8438H27.0396H28.2101L28.1383 31.4264C28.013 32.4429 27.9568 32.6115 27.6663 32.84C27.5102 32.9629 27.2255 33.0633 27.0337 33.0633Z" fill="#ECDFCE"/>
<path d="M23.3125 24.8424C21.0456 22.0215 22.4258 17.8619 25.9096 17.0156C27.8712 16.539 29.9862 17.384 31.0737 19.0788C32.4915 21.2883 31.9 24.2741 29.7559 25.7301C28.9777 26.2587 28.7633 26.5293 28.6718 27.0985L28.6047 27.5147H27.0097H25.4148L25.4143 27.2095C25.4138 26.739 25.0555 26.2565 24.3283 25.7463C23.9635 25.4905 23.5064 25.0837 23.3125 24.8424Z" fill="#ECDFCE"/>
</svg>
