<svg width="38" height="53" viewBox="0 0 38 53" fill="none" xmlns="http://www.w3.org/2000/svg">
<path fill-rule="evenodd" clip-rule="evenodd" d="M1.65191 1.02842C1.14518 1.18813 0.280928 2.08306 0.125545 2.60898C0.0284958 2.9374 0 8.55275 0 27.3148V51.5958L0.253465 51.8491C0.504761 52.1005 0.522829 52.1026 2.47786 52.1026C4.43289 52.1026 4.45096 52.1005 4.70226 51.8491L4.95572 51.5958V27.3148C4.95572 8.85536 4.9263 2.93575 4.83296 2.62426C4.65311 2.0239 3.91987 1.25669 3.33582 1.05763C2.79017 0.871691 2.18258 0.86116 1.65191 1.02842Z" fill="#ECDFCE"/>
<path d="M20.2889 4.25136C24.5481 3.45752 25.4901 3.30141 27.1546 3.11361C28.027 3.01522 29.2646 2.97888 30.9746 3.0017C33.6268 3.0369 34.914 3.19032 36.7839 3.69395C38.1442 4.06036 37.9952 2.31647 37.9952 17.876C37.9952 31.2094 37.9935 31.3237 37.7867 31.5866C37.5114 31.9365 37.2592 31.9641 36.4077 31.737C34.8115 31.3117 33.3261 31.12 31.2327 31.0694C28.2471 30.9971 25.9026 31.271 20.8667 32.2805C16.8117 33.0934 14.4734 33.3906 11.4099 33.4826C9.54569 33.5385 7.64093 33.4384 6.84131 33.2423L6.60901 33.1853V19.1441V5.10292L6.84131 5.15898C8.33329 5.5191 12.651 5.50423 15.2299 5.13018C16.0817 5.0066 18.3582 4.61117 20.2889 4.25136Z" fill="#BE925A"/>
</svg>
