<svg width="51" height="51" viewBox="0 0 51 51" fill="none" xmlns="http://www.w3.org/2000/svg">
<path fill-rule="evenodd" clip-rule="evenodd" d="M24.3541 20.8089C22.0386 21.3049 19.9356 23.0578 19.0546 25.2261C18.3418 26.9802 18.3458 29.1018 19.0653 30.8109C19.9942 33.0179 22.115 34.7864 24.3384 35.2083C25.0011 35.334 25.1215 35.4839 24.5596 35.4839C24.3823 35.4839 23.9082 35.568 23.506 35.6709C19.6819 36.649 16.8822 39.4206 15.8504 43.2495C15.6451 44.0114 15.6223 44.3436 15.5828 47.1531L15.5396 50.2239H25.8763H36.2131L36.1702 47.1531C36.1324 44.4401 36.1038 43.996 35.9247 43.3422C35.018 40.0319 32.9176 37.5204 30.0035 36.2622C29.0959 35.8703 27.699 35.4839 27.19 35.4839C26.6875 35.4839 26.7151 35.3189 27.2293 35.2485C28.4902 35.0757 30.0281 34.253 31.0767 33.1903C32.43 31.8188 33.085 30.3514 33.2121 28.4068C33.4848 24.2337 30.0232 20.6096 25.8067 20.6537C25.3856 20.658 24.7319 20.7279 24.3541 20.8089Z" fill="#BE925A"/>
<path d="M22.8627 5.55279C23.1158 5.49894 23.2606 5.24747 24.4756 2.7517C25.2097 1.2436 25.8402 0.00976562 25.8766 0.00976562C25.9131 0.00976562 26.5445 1.24547 27.2797 2.75563C28.5835 5.43398 28.6244 5.50296 28.9416 5.55839C29.5332 5.66176 34.618 6.39709 34.7414 6.39709C34.8079 6.39709 33.848 7.38369 32.6083 8.58962L30.3543 10.782L30.8711 13.8098C31.1554 15.4752 31.3748 16.8508 31.3587 16.8669C31.3426 16.883 30.1039 16.2544 28.6059 15.47L25.8824 14.0439L23.1557 15.4727C21.6561 16.2585 20.4147 16.8871 20.3972 16.8696C20.3796 16.852 20.5979 15.4753 20.882 13.81L21.3989 10.7824L19.1473 8.58971C17.909 7.38379 16.9419 6.39709 16.9984 6.39709C17.1521 6.39709 22.5409 5.62128 22.8627 5.55279Z" fill="#ECDFCE"/>
<path d="M38.7834 15.5759C39.0383 15.5217 39.1798 15.276 40.3966 12.7748C41.1302 11.2669 41.7596 10.0332 41.7952 10.0332C41.8308 10.0332 42.4599 11.2668 43.1932 12.7745C44.4151 15.2871 44.5499 15.5207 44.8071 15.5729C44.9615 15.6042 46.4137 15.8107 48.0342 16.0318C49.6548 16.253 50.9894 16.4424 50.9999 16.453C51.0104 16.4636 49.9608 17.4375 48.6675 18.6175C47.3742 19.7974 46.3161 20.8328 46.3161 20.9183C46.3161 21.0039 46.5395 22.3757 46.8124 23.9668C47.0853 25.5578 47.2951 26.8731 47.2786 26.8897C47.2622 26.9062 46.0231 26.2778 44.5252 25.4935L41.8017 24.0673L39.0739 25.495C37.5734 26.2801 36.3321 26.9087 36.3152 26.8918C36.2983 26.8749 36.517 25.4988 36.8013 23.8338L37.318 20.8064L35.069 18.6134C33.8321 17.4073 32.8651 16.4205 32.9202 16.4205C33.0725 16.4205 38.4638 15.6439 38.7834 15.5759Z" fill="#ECDFCE"/>
<path d="M7.05945 15.5326C7.19682 15.4826 7.65877 14.633 8.57432 12.7469C9.29875 11.2544 9.92117 10.0332 9.95733 10.0332C9.99349 10.0332 10.615 11.2527 11.3386 12.7432C12.062 14.2336 12.69 15.4754 12.7341 15.5026C12.8133 15.5517 18.5213 16.4137 18.796 16.4182C18.8742 16.4194 17.925 17.4072 16.6866 18.6132L14.435 20.8059L14.9519 23.8335C15.2361 25.4987 15.4555 26.8742 15.4394 26.8903C15.4233 26.9065 14.1846 26.2778 12.6867 25.4935L9.96322 24.0673L7.23534 25.495C5.73491 26.2801 4.49322 26.9084 4.47592 26.8911C4.45863 26.8738 4.66783 25.5578 4.94082 23.9668C5.21371 22.3757 5.43707 21.0041 5.43707 20.9187L0 16.4182L3.77607 16.0289C5.47333 15.7956 6.95086 15.5722 7.05945 15.5326Z" fill="#ECDFCE"/>
<path d="M37.8359 30.1958C38.1711 30.0202 38.7681 29.792 39.1625 29.6886C40.538 29.3283 42.0989 29.5155 43.399 30.1966C44.1962 30.6143 45.3883 31.8064 45.806 32.6036C46.4891 33.9074 46.6732 35.4149 46.3186 36.8013C46.0346 37.9114 45.5984 38.6653 44.7472 39.5164C43.9056 40.358 43.1414 40.8044 42.0708 41.0798C41.3099 41.2755 41.3166 41.2917 42.2381 41.4788C43.9911 41.8348 45.7204 43.0374 46.7592 44.623C47.6321 45.9551 47.9867 47.2455 47.9867 49.09V50.2242H43.5647H39.1427L39.1421 47.5955C39.1415 44.8452 39.0412 43.7623 38.6621 42.4153C38.5561 42.0388 38.4876 41.7016 38.5096 41.6658C38.5646 41.5769 39.3689 41.3802 39.6776 41.3802C39.8157 41.3802 39.9288 41.3359 39.9288 41.2819C39.9288 41.2278 39.8192 41.1836 39.6852 41.1836C39.5513 41.1836 39.1598 41.0912 38.8155 40.9781L38.1893 40.7725L37.8553 40.0728C37.5881 38.7984 36.2108 37.3031 35.5555 36.7148C34.7252 35.7955 34.7207 35.7876 34.7207 35.26C34.7207 34.543 35.0399 33.3433 35.4274 32.6036C35.7072 32.069 36.5807 30.8391 37.8359 30.1958Z" fill="#BE925A"/>
<path d="M7.00606 31.2554C7.84525 30.4163 8.60682 29.9704 9.68245 29.6886C11.0579 29.3283 12.6187 29.5155 13.9189 30.1966C14.7161 30.6143 15.9082 31.8064 16.3259 32.6036C16.7134 33.3433 17.0326 34.543 17.0326 35.26C17.0326 35.7876 17.0281 35.7955 16.1978 36.7148C15.2767 37.7347 14.4102 38.9999 13.898 40.0728L13.564 40.7725L12.9378 40.9781C12.5935 41.0912 12.202 41.1836 12.0681 41.1836C11.9341 41.1836 11.8245 41.2278 11.8245 41.2819C11.8245 41.3359 11.9376 41.3802 12.0757 41.3802C12.3844 41.3802 13.1887 41.5769 13.2437 41.6658C13.2657 41.7016 13.1971 42.0388 13.0912 42.4153C12.7121 43.7623 12.6118 44.8452 12.6112 47.5955L12.6106 50.2242H8.1886H3.7666V49.09C3.7666 46.7189 4.3561 45.1494 5.82676 43.6044C6.20273 43.0626 7.46677 41.8787 9.5152 41.4784C10.4365 41.292 10.4435 41.2755 9.68245 41.0798C8.61193 40.8044 7.84771 40.358 7.00606 39.5164C6.15487 38.6653 5.71867 37.9114 5.43468 36.8013C5.18832 35.8379 5.18832 34.9339 5.43468 33.9705C5.71867 32.8605 6.15487 32.1066 7.00606 31.2554Z" fill="#BE925A"/>
</svg>
