<svg width="52" height="52" viewBox="0 0 52 52" fill="none" xmlns="http://www.w3.org/2000/svg">
<path fill-rule="evenodd" clip-rule="evenodd" d="M37.0792 4.10401C33.3697 6.36132 30.2978 8.24478 30.2529 8.28967C30.2081 8.33456 30.9482 8.73187 31.8977 9.17255C32.8473 9.61332 33.6482 10.0127 33.6774 10.06C33.7474 10.1731 32.4759 12.0179 31.4276 13.3243C27.2198 18.5678 21.7739 22.4926 15.4142 24.8645C13.0725 25.738 9.85011 26.531 7.41405 26.8334L6.34766 26.9657L6.38209 28.4317C6.40098 29.2379 6.43794 29.9323 6.46425 29.9747C6.53057 30.0821 9.23292 30.068 11.4257 29.9488C15.1454 29.7467 18.4406 29.2825 21.4736 28.5333C28.1714 26.8787 32.6436 24.4333 37.0751 20.0023C38.7668 18.3109 39.9149 16.9637 41.2426 15.113C41.6998 14.4758 42.115 13.9665 42.1656 13.9812C42.2161 13.9958 43.1496 14.4235 44.24 14.9316C45.3304 15.4396 46.2404 15.8375 46.2622 15.8157C46.3088 15.7691 44.017 0.677315 43.9021 0.274115L43.8239 0L37.0792 4.10401Z" fill="#ECDFCE"/>
<path d="M18.3831 51.1767V48.1299V45.083H26.0002H33.6173V48.1299V51.1767H26.0002H18.3831Z" fill="#BE925A"/>
<path d="M36.6638 51.1767V48.1299V45.083H44.3317H51.9996V48.1299V51.1767H44.3317H36.6638Z" fill="#BE925A"/>
<path d="M18.3831 42.0361V38.9892V35.9424H26.0002H33.6173V38.9892V42.0361H26.0002H18.3831Z" fill="#BE925A"/>
<path d="M36.6638 42.0361V38.9892V35.9424H44.3317H51.9996V38.9892V42.0361H44.3317H36.6638Z" fill="#BE925A"/>
<path d="M36.6638 32.8955V29.8486V26.8018H44.3317H51.9996V29.8486V32.8955H44.3317H36.6638Z" fill="#BE925A"/>
<path d="M0 51.1767V48.1299V45.083H7.66791H15.3358V48.1299V51.1767H7.66791H0Z" fill="#BE925A"/>
</svg>
