<svg width="51" height="49" viewBox="0 0 51 49" fill="none" xmlns="http://www.w3.org/2000/svg">
<path fill-rule="evenodd" clip-rule="evenodd" d="M27.7824 0.801205C26.1446 1.24167 24.7951 2.50998 24.151 4.21408C23.9424 4.76605 23.935 4.9404 23.9022 10.119C23.865 15.9794 23.8817 16.2063 24.432 17.3503C25.0642 18.664 26.1873 19.6481 27.5576 20.0886C28.0545 20.2484 28.2699 20.3667 28.27 20.4797C28.2701 20.7556 28.8259 21.8333 29.1703 22.2255C29.618 22.7355 30.2587 23.1596 30.9303 23.3907C31.605 23.6228 32.8119 23.6486 33.4869 23.4454C33.7406 23.369 35.0606 22.6622 36.4202 21.8745L38.8924 20.4423L42.7824 20.3892C46.6445 20.3367 46.6774 20.3345 47.3807 20.0802C48.7894 19.5712 49.8372 18.6427 50.4617 17.3503C51.001 16.2343 51.0254 15.8985 50.9891 10.0691C50.9572 4.9407 50.9499 4.76585 50.7413 4.21408C50.0855 2.47837 48.7478 1.23398 47.0671 0.796217C46.2138 0.573992 28.6104 0.578481 27.7824 0.801205ZM42.2417 6.3328C43.2788 6.86193 43.3776 8.34868 42.4209 9.03102L42.0842 9.2712H37.4384H32.7926L32.4352 8.9986C31.5134 8.29552 31.6173 6.8719 32.6294 6.33778C32.9909 6.14698 33.2037 6.1379 37.4252 6.13371C41.6797 6.12952 41.8575 6.1368 42.2417 6.3328ZM42.4209 11.8054C42.8655 12.1225 43.1718 12.8109 43.0841 13.296C42.9793 13.8759 42.601 14.3655 42.1145 14.5507C41.7359 14.6949 41.1663 14.7108 37.2892 14.6857L32.8931 14.6573L32.4869 14.3884C31.4999 13.735 31.5935 12.2675 32.6586 11.6981C32.9872 11.5224 33.2732 11.513 37.5459 11.5383L42.0842 11.5653L42.4209 11.8054Z" fill="#ECDFCE"/>
<path d="M4.46928 19.6526C5.39927 16.211 8.04583 13.6368 11.4132 12.8989C12.5657 12.6463 14.718 12.6989 15.7845 13.0056C18.9194 13.9073 21.3526 16.3682 22.1981 19.4926C22.4601 20.4609 22.5515 22.242 22.3902 23.2412C21.6502 27.8289 17.6147 31.1381 13.0091 30.9341C11.5641 30.87 10.5607 30.611 9.26876 29.9686C6.98946 28.8352 5.34182 26.8576 4.56762 24.326C4.32236 23.5241 4.29433 23.2789 4.28894 21.8885C4.28425 20.677 4.32325 20.1933 4.46928 19.6526Z" fill="#BE925A"/>
<path d="M3.9256 37.0467C6.21757 34.7634 9.08126 33.4252 12.2355 33.1633C17.1049 32.759 21.8004 35.0376 24.5218 39.1255C25.6396 40.8046 26.3332 42.6168 26.6284 44.6294C26.9156 46.5885 26.7843 47.3078 26.0371 47.8656C25.7629 48.0704 25.7084 48.0714 13.5003 48.0974C-0.0719635 48.1263 0.815441 48.1687 0.280425 47.4651C0.0020453 47.099 -0.00673202 47.0521 0.00194554 45.9833C0.0284769 42.7383 1.44033 39.5224 3.9256 37.0467Z" fill="#BE925A"/>
</svg>
