<svg width="58" height="51" viewBox="0 0 58 51" fill="none" xmlns="http://www.w3.org/2000/svg">
<path d="M44.651 16.6508C42.6595 12.2852 39.2912 8.69314 35.0625 6.42535C30.8338 4.15756 25.9781 3.33915 21.2397 4.09557C16.5013 4.85199 12.1417 7.14149 8.82919 10.6131C5.51672 14.0848 3.43417 18.5469 2.90079 23.3156C2.3674 28.0842 3.41262 32.8963 5.87622 37.0139C8.33981 41.1316 12.0858 44.3278 16.54 46.1124C20.9942 47.897 25.9107 48.1717 30.536 46.8942C35.1612 45.6167 39.2399 42.8577 42.1467 39.04L24.6971 25.7535L44.651 16.6508Z" fill="#BE925A"/>
<path d="M48.5664 39.97C51.1211 36.8251 52.7546 33.0339 53.2858 29.0171C53.817 25.0003 53.2251 20.9149 51.5758 17.214L31.5429 26.1417L48.5664 39.97Z" fill="#ECDFCE"/>
</svg>
