<svg width="50" height="50" viewBox="0 0 50 50" fill="none" xmlns="http://www.w3.org/2000/svg">
<path fill-rule="evenodd" clip-rule="evenodd" d="M37.2497 0.122376C36.9382 0.281421 26.1833 12.8008 25.8981 13.3363C25.7 13.7085 25.7375 14.3665 25.9792 14.7576C26.33 15.3252 26.6348 15.4044 28.4681 15.4044H30.0897V18.4329V21.4614L32.9472 21.462C34.5188 21.4623 36.0636 21.5049 36.3799 21.5568C37.6674 21.7676 38.9492 22.6854 39.5148 23.8015C40.0606 24.8787 40.0509 24.6381 40.0528 37.1036C40.0543 47.8358 40.0293 49.0944 39.8003 49.8222C39.7479 49.989 39.8641 49.9968 41.9932 49.9688C44.463 49.9362 44.4859 49.9309 44.9819 49.2665C45.1834 48.9968 45.1834 48.9927 45.2086 32.2006L45.2339 15.4044H47.0941C48.5454 15.4044 49.0157 15.3727 49.2338 15.2598C49.8436 14.9446 50.1386 14.2325 49.9369 13.5633C49.862 13.3148 48.1731 11.2637 44.3801 6.81518C41.3831 3.30006 38.8151 0.338768 38.6734 0.234528C38.3202 -0.0254347 37.6438 -0.0787755 37.2497 0.122376Z" fill="#ECDFCE"/>
<path d="M0.511915 24.705C0.646146 24.5815 0.882663 24.4423 1.03741 24.3959C1.19225 24.3496 9.10183 24.3079 18.6144 24.3033L35.9099 24.2949L36.3458 24.5147C36.6643 24.6753 36.8409 24.852 37.0015 25.1705C37.2192 25.602 37.2213 25.6476 37.2213 29.7376V33.8689H33.3624H29.5035L29.5031 32.6233C29.5027 31.2258 29.3987 30.9193 28.7961 30.541C28.3969 30.2903 27.6115 30.3214 27.2336 30.6027C26.719 30.9859 26.6257 31.2781 26.5879 32.6233L26.5531 33.8689H18.6124H10.6717L10.6322 32.6233C10.6013 31.649 10.5544 31.3138 10.417 31.0846C10.1563 30.6497 9.79487 30.4234 9.28227 30.3741C8.76831 30.3248 8.39717 30.4746 8.01089 30.8875C7.77838 31.136 7.76509 31.2142 7.73481 32.5087L7.70305 33.8689H3.85148H0V29.7138C0 25.2459 0.00781549 25.1696 0.511915 24.705Z" fill="#BE925A"/>
<path d="M12.8656 17.0656C13.1039 16.6854 13.3849 16.4822 13.8237 16.3728C13.9849 16.3326 16.2709 16.3072 18.9038 16.3163C23.5149 16.3323 23.7034 16.3401 24.0327 16.5305C24.2352 16.6476 24.4643 16.905 24.5945 17.1618C24.8004 17.5681 24.8143 17.7175 24.8143 19.5287V21.4618H23.3521H21.8899L21.8623 20.3628L21.8346 19.2637H18.7084H15.5822L15.5546 20.3628L15.5269 21.4618H14.0577H12.5884L12.6199 19.4347C12.6492 17.5468 12.6661 17.384 12.8656 17.0656Z" fill="#BE925A"/>
<path d="M0.673891 49.6687C-0.0243258 49.2023 0.000293081 49.454 0.000195388 42.7821L0 36.7973L3.83448 36.8228L7.66896 36.8484L7.71781 37.8432C7.77506 39.009 7.91613 39.2796 8.61952 39.5725C9.19034 39.8101 9.65459 39.7278 10.0974 39.31C10.5009 38.9295 10.6473 38.4503 10.648 37.5078L10.6486 36.7995H13.8592H17.0697L17.1171 37.7037C17.1705 38.7242 17.3212 39.1104 17.7988 39.4504C18.4238 39.8955 19.4806 39.672 19.8565 39.0152C19.9235 38.8981 20.0004 38.3626 20.0272 37.8253L20.0761 36.8484L23.3244 36.8227L26.5727 36.7969V37.6079C26.5727 38.2563 26.6168 38.5052 26.7925 38.8491C27.2004 39.6472 27.8686 39.9009 28.6513 39.5547C29.3116 39.2626 29.4458 38.9913 29.5035 37.8304L29.5524 36.8484L33.3897 36.8228L37.2271 36.7973L37.1997 42.8309C37.1694 49.5439 37.1986 49.2563 36.5039 49.6856L36.1725 49.8905H18.5892H1.00585L0.673891 49.6687Z" fill="#BE925A"/>
</svg>
