<svg width="83" height="41" viewBox="0 0 83 41" fill="none" xmlns="http://www.w3.org/2000/svg">
<path d="M30.888 34L30.84 16.192L22.2 30.688H17.976L9.336 16.576V34H0.6V0.399998H8.424L20.232 19.792L31.752 0.399998H39.576L39.672 34H30.888ZM82.821 26.464V40.768H74.133V34H52.629V40.768H43.893V26.464H45.093C47.077 26.432 48.469 25.072 49.269 22.384C50.101 19.696 50.613 15.824 50.805 10.768L51.189 0.399998H78.261V26.464H82.821ZM59.109 11.584C58.981 15.168 58.693 18.208 58.245 20.704C57.797 23.2 57.109 25.12 56.181 26.464H68.901V7.936H59.253L59.109 11.584Z" fill="#272727"/>
</svg>
