<svg width="68" height="68" viewBox="0 0 68 68" fill="none" xmlns="http://www.w3.org/2000/svg">
<mask id="path-1-inside-1_500_677" fill="white">
<path fill-rule="evenodd" clip-rule="evenodd" d="M34 68C52.7777 68 68 52.7777 68 34C68 15.2223 52.7777 0 34 0C15.2223 0 0 15.2223 0 34C0 52.7777 15.2223 68 34 68ZM47.705 28.7092C48.0967 28.3199 48.0986 27.6867 47.7092 27.295C47.3199 26.9033 46.6867 26.9014 46.295 27.2908L32.6201 40.8841C32.229 41.2728 31.5971 41.2716 31.2075 40.8815L22.7076 32.3703C22.3173 31.9795 21.6841 31.9791 21.2934 32.3693C20.9026 32.7596 20.9022 33.3928 21.2924 33.7836L29.7924 42.2948C30.9612 43.4652 32.8569 43.4687 34.03 42.3025L47.705 28.7092Z"/>
</mask>
<path fill-rule="evenodd" clip-rule="evenodd" d="M34 68C52.7777 68 68 52.7777 68 34C68 15.2223 52.7777 0 34 0C15.2223 0 0 15.2223 0 34C0 52.7777 15.2223 68 34 68ZM47.705 28.7092C48.0967 28.3199 48.0986 27.6867 47.7092 27.295C47.3199 26.9033 46.6867 26.9014 46.295 27.2908L32.6201 40.8841C32.229 41.2728 31.5971 41.2716 31.2075 40.8815L22.7076 32.3703C22.3173 31.9795 21.6841 31.9791 21.2934 32.3693C20.9026 32.7596 20.9022 33.3928 21.2924 33.7836L29.7924 42.2948C30.9612 43.4652 32.8569 43.4687 34.03 42.3025L47.705 28.7092Z" fill="#BE925A"/>
<path d="M47.705 28.7092L46.295 27.2908L46.295 27.2908L47.705 28.7092ZM46.295 27.2908L44.885 25.8723L44.885 25.8723L46.295 27.2908ZM32.6201 40.8841L31.2101 39.4656L31.2101 39.4657L32.6201 40.8841ZM31.2075 40.8815L32.6227 39.4682L31.2075 40.8815ZM22.7076 32.3703L24.1227 30.957L24.1227 30.957L22.7076 32.3703ZM21.2934 32.3693L19.8801 30.9542L19.8801 30.9542L21.2934 32.3693ZM21.2924 33.7836L19.8773 35.1968L19.8773 35.1968L21.2924 33.7836ZM29.7924 42.2948L31.2075 40.8815L31.2075 40.8815L29.7924 42.2948ZM34.03 42.3025L32.6201 40.8841L34.03 42.3025ZM66 34C66 51.6731 51.6731 66 34 66V70C53.8823 70 70 53.8823 70 34H66ZM34 2C51.6731 2 66 16.3269 66 34H70C70 14.1177 53.8823 -2 34 -2V2ZM2 34C2 16.3269 16.3269 2 34 2V-2C14.1177 -2 -2 14.1177 -2 34H2ZM34 66C16.3269 66 2 51.6731 2 34H-2C-2 53.8823 14.1177 70 34 70V66ZM46.2908 28.705C45.9014 28.3133 45.9033 27.6801 46.295 27.2908L49.115 30.1277C50.29 28.9596 50.2957 27.0601 49.1277 25.885L46.2908 28.705ZM47.705 28.7092C47.3133 29.0986 46.6801 29.0967 46.2908 28.705L49.1277 25.885C47.9596 24.71 46.0601 24.7043 44.885 25.8723L47.705 28.7092ZM34.03 42.3025L47.705 28.7092L44.885 25.8723L31.2101 39.4656L34.03 42.3025ZM29.7923 42.2948C30.9612 43.4652 32.8569 43.4687 34.03 42.3025L31.2101 39.4657C31.6011 39.0769 32.233 39.0781 32.6227 39.4682L29.7923 42.2948ZM21.2924 33.7836L29.7923 42.2948L32.6227 39.4682L24.1227 30.957L21.2924 33.7836ZM22.7066 33.7845C22.3159 34.1748 21.6827 34.1743 21.2924 33.7836L24.1227 30.957C22.9519 29.7847 21.0524 29.7834 19.8801 30.9542L22.7066 33.7845ZM22.7076 32.3703C23.0978 32.7611 23.0974 33.3942 22.7066 33.7845L19.8801 30.9542C18.7077 32.125 18.7065 34.0245 19.8773 35.1968L22.7076 32.3703ZM31.2075 40.8815L22.7076 32.3703L19.8773 35.1968L28.3772 43.7081L31.2075 40.8815ZM32.6201 40.8841C32.229 41.2728 31.5971 41.2716 31.2075 40.8815L28.3772 43.708C30.3253 45.6588 33.4848 45.6645 35.44 43.721L32.6201 40.8841ZM46.295 27.2908L32.6201 40.8841L35.44 43.721L49.115 30.1277L46.295 27.2908Z" fill="#BE925A" mask="url(#path-1-inside-1_500_677)"/>
</svg>
