<svg width="47" height="47" viewBox="0 0 47 47" fill="none" xmlns="http://www.w3.org/2000/svg">
<path fill-rule="evenodd" clip-rule="evenodd" d="M22.2264 10.3697C17.7331 10.8289 13.8576 13.4745 11.7518 17.5199C10.0824 20.727 9.85556 24.5716 11.1269 28.112C12.6814 32.4408 16.7676 35.8099 21.3686 36.5561C22.5259 36.7437 24.5646 36.7444 25.7172 36.5575C30.7847 35.7357 35.0081 31.8691 36.3589 26.8148C36.7845 25.2223 36.8756 22.9147 36.5792 21.2378C35.729 16.4292 32.2799 12.4792 27.5942 10.948C25.9809 10.4208 23.9094 10.1976 22.2264 10.3697ZM23.9841 15.5531C24.3362 15.7415 24.3795 16.1716 24.3795 19.4861V22.7026H27.3722C30.4193 22.7026 30.6357 22.726 30.9119 23.0857C31.1035 23.3353 31.0558 23.7473 30.8012 24.0434L30.5648 24.3181H26.8762H23.1876L22.9513 24.0434L22.715 23.7686V19.8533V15.9379L22.9554 15.6976C23.2097 15.4432 23.6605 15.38 23.9841 15.5531Z" fill="#BE925A"/>
<path fill-rule="evenodd" clip-rule="evenodd" d="M20.7545 0.0107212C20.753 0.0250161 20.6456 1.11241 20.5157 2.42725C20.234 5.27782 20.2921 5.16434 18.9373 5.50987C17.2727 5.93441 15.6479 6.62076 13.9538 7.61504C12.8882 8.24049 12.9366 8.25763 10.8035 6.49759L8.96293 4.9788L6.98141 6.95855C5.27444 8.66396 5.01752 8.95916 5.12718 9.08928C5.36589 9.37234 7.10713 11.4904 7.56858 12.059C8.15497 12.7815 8.1627 13.0293 7.62733 13.9415C6.64303 15.6186 6.04774 17.01 5.53782 18.8252C5.30744 19.6453 5.18162 19.9336 4.99344 20.072C4.7982 20.2157 4.31276 20.2929 2.59463 20.4535C1.40991 20.5642 0.341512 20.6758 0.220299 20.7017L0 20.7485V23.5371C0 25.0708 0.0110639 26.326 0.0244776 26.3266C0.0378914 26.3271 1.12205 26.434 2.43366 26.5641C5.25505 26.8439 5.15881 26.7977 5.47976 28.024C5.94513 29.8021 6.6023 31.3678 7.54068 32.9346C7.98686 33.6795 8.06577 33.8919 8.03992 34.2777C8.03376 34.3703 7.34319 35.2705 6.50527 36.2783L4.98198 38.1106L6.92051 40.0509C7.98676 41.1182 8.90526 41.9913 8.96175 41.9913C9.01825 41.9913 9.85577 41.332 10.8229 40.526C11.7902 39.7201 12.7031 39.0337 12.8517 39.0005C13.0627 38.9534 13.2988 39.0431 13.9288 39.4099C15.5862 40.3751 17.3544 41.133 18.8253 41.5085C19.9271 41.7898 20.1438 41.9189 20.2545 42.3592C20.3051 42.5608 20.4192 43.5408 20.5081 44.537C20.597 45.5333 20.6943 46.4916 20.7242 46.6666L20.7789 46.9848H23.5877H26.3966L26.6125 44.6594C26.8611 41.9824 26.8772 41.9391 27.7175 41.6831C28.0088 41.5944 28.6288 41.4069 29.0952 41.2666C30.3254 40.8963 31.4584 40.4002 32.6944 39.6906C33.9696 38.9585 34.0668 38.9214 34.3909 39.0446C34.5261 39.096 35.4094 39.7801 36.3539 40.5648C37.2982 41.3493 38.1081 41.9913 38.1534 41.9913C38.1988 41.9913 39.1128 41.1137 40.1845 40.0409L42.1332 38.0905L40.7115 36.3887C39.9296 35.4528 39.2395 34.593 39.1781 34.4781C38.9828 34.1132 39.0543 33.8364 39.5621 32.9921C40.4346 31.5413 41.1131 29.9091 41.7063 27.8345C41.8153 27.4526 41.9881 27.0648 42.09 26.9725C42.2338 26.8423 42.711 26.7625 44.22 26.6162C45.2897 26.5124 46.3527 26.4017 46.5824 26.3703L47 26.3132L46.9741 23.5052L46.9481 20.6974L44.5983 20.4718C41.781 20.2012 41.9369 20.2868 41.5168 18.7816C41.016 16.9875 40.4143 15.5711 39.507 14.0507C39.0527 13.2894 38.9619 13.0661 39.0128 12.8346C39.0485 12.6721 39.7002 11.8016 40.5375 10.7976C41.3418 9.8334 42.0008 8.99999 42.0018 8.94565C42.0028 8.89121 41.1335 7.97849 40.0699 6.91714L38.1362 4.98751L36.6675 6.21864C34.1977 8.28906 34.2449 8.26918 33.2406 7.65881C31.7234 6.73669 30.1422 6.05963 28.2563 5.52475C27.4391 5.293 27.1468 5.16493 27.0115 4.97909C26.8713 4.7867 26.7881 4.24888 26.6107 2.38652L26.3869 0.0366675L23.572 0.0107212C22.0238 -0.00357373 20.7559 -0.00357373 20.7545 0.0107212ZM24.9884 8.74591C26.9802 8.87965 29.2796 9.64306 31.2824 10.8355C33.1508 11.9479 35.1299 13.9271 36.2467 15.8003C37.7386 18.3026 38.3919 20.6584 38.3916 23.5352C38.3912 27.0526 37.3003 30.13 35.0746 32.892C32.7758 35.7447 29.4502 37.6362 25.6991 38.2244C24.2828 38.4465 21.9254 38.3799 20.5246 38.0783C15.4494 36.9854 11.3423 33.4424 9.56782 28.6265C8.44234 25.5719 8.36675 22.0596 9.36064 19.0078C10.4484 15.668 12.6182 12.8724 15.6263 10.9353C16.8946 10.1185 19.0045 9.27609 20.6102 8.94535C21.4558 8.77117 23.2078 8.6199 23.8412 8.66641C24.0566 8.68217 24.5729 8.71791 24.9884 8.74591Z" fill="#ECDFCE"/>
</svg>
