<svg width="76" height="56" viewBox="0 0 76 56" fill="none" xmlns="http://www.w3.org/2000/svg">
<path d="M22.9194 0.719727C13.7994 0.719727 6.27937 7.43974 6.27937 17.3597C6.27937 22.4797 8.67937 26.7997 12.5194 29.3597L0.359375 55.1197H16.1994L32.0394 29.3597C36.0394 23.2797 37.4794 19.7597 37.4794 15.1197C37.4794 6.63972 31.5594 0.719727 22.9194 0.719727ZM60.6794 0.719727C51.5594 0.719727 44.0394 7.43974 44.0394 17.3597C44.0394 22.4797 46.4394 26.7997 50.2794 29.3597L38.1194 55.1197H53.9594L69.7994 29.3597C73.7994 23.2797 75.2394 19.7597 75.2394 15.1197C75.2394 6.63972 69.3194 0.719727 60.6794 0.719727Z" fill="#BE925A"/>
</svg>
