<svg width="45" height="45" viewBox="0 0 45 45" fill="none" xmlns="http://www.w3.org/2000/svg">
<path opacity="0.3" d="M22.5 8.37079C23.2281 8.37079 23.8184 7.78052 23.8184 7.05243V2.69824C23.8184 1.97016 23.2281 1.37988 22.5 1.37988C21.7719 1.37988 21.1816 1.97016 21.1816 2.69824V7.05243C21.1816 7.78052 21.7719 8.37079 22.5 8.37079Z" fill="#BE925A"/>
<path opacity="0.3" d="M28.6524 10.6084C28.9898 10.6084 29.3272 10.4796 29.5846 10.2222L33.1002 6.70656C33.615 6.19178 33.615 5.357 33.1002 4.84214C32.5854 4.32736 31.7506 4.32736 31.2358 4.84214L27.7201 8.35776C27.2053 8.87254 27.2053 9.70732 27.7201 10.2222C27.9776 10.4796 28.315 10.6084 28.6524 10.6084V10.6084Z" fill="#BE925A"/>
<path opacity="0.3" d="M15.4155 10.2222C15.673 10.4796 16.0104 10.6084 16.3477 10.6084C16.685 10.6084 17.0225 10.4796 17.2799 10.2222C17.7947 9.70741 17.7947 8.87262 17.2799 8.35776L13.7642 4.84214C13.2495 4.32736 12.4147 4.32736 11.8998 4.84214C11.385 5.35691 11.385 6.1917 11.8998 6.70656L15.4155 10.2222Z" fill="#BE925A"/>
<path opacity="0.3" d="M34.3415 20.013L29.2238 14.8952C28.2348 13.9061 26.8935 13.3506 25.4948 13.3506H17.4898C15.4942 13.3506 13.6182 14.1277 12.2072 15.5387L11.7859 15.96L11.7586 15.9872H1.31836C0.590273 15.9872 0 16.5775 0 17.3056V31.3681C0 32.0962 0.590273 32.6864 1.31836 32.6864H7.89144L11.021 35.8159C11.2682 36.0631 11.6035 36.2021 11.9531 36.2021H13.1469C12.705 35.5182 12.4206 34.7542 12.3093 33.9545C11.3237 33.6339 10.4367 33.0419 9.75366 32.2278C7.76786 29.861 8.07768 26.32 10.4443 24.3341L15.4551 20.1296H25.4601C25.8097 20.1296 26.1451 20.2685 26.3923 20.5158L30.0733 24.1967C31.2556 25.379 33.2157 25.4043 34.3777 24.202C35.5065 23.0342 35.4944 21.1658 34.3415 20.013V20.013Z" fill="#BE925A"/>
<path d="M44.9999 20.0303C44.9999 19.302 44.4096 18.7118 43.6815 18.7119H36.6972C38.3829 20.9154 38.2201 24.0891 36.2059 26.1034C35.1443 27.165 33.7317 27.7495 32.2284 27.7495C30.725 27.7495 29.3125 27.165 28.251 26.1034L24.9141 22.7664H16.168L15.1324 23.6354L11.7877 26.4419C10.5327 27.4949 10.3691 29.3659 11.4221 30.6209C12.4751 31.8759 14.3461 32.0396 15.6011 30.9865C14.3461 32.0396 14.1825 33.9106 15.2355 35.1656C16.2885 36.4206 18.1595 36.5842 19.4145 35.5312C18.1595 36.5842 17.9959 38.4552 19.0489 39.7102C20.1019 40.9652 21.9729 41.1289 23.2279 40.0758L25.5627 38.1167L25.2478 38.381C23.9928 39.434 23.8292 41.305 24.8822 42.56C25.9352 43.815 27.8062 43.9786 29.0612 42.9256L38.0167 35.411H43.6817C44.4098 35.411 45.0001 34.8207 45 34.0926L44.9999 20.0303Z" fill="#BE925A"/>
</svg>
