<svg width="30" height="30" viewBox="0 0 30 30" fill="none" xmlns="http://www.w3.org/2000/svg">
<path fill-rule="evenodd" clip-rule="evenodd" d="M13.5994 0.0348323C8.50131 0.526555 3.94782 3.61323 1.64038 8.14151C0.824343 9.74304 0.342177 11.2873 0.0783452 13.1442C-0.0386004 13.9676 -0.0216339 16.0979 0.109284 17.016C0.341766 18.6464 0.822817 20.1913 1.56007 21.6754C3.02277 24.6199 5.35945 26.9545 8.31203 28.4216C13.0984 30.7999 18.7551 30.4729 23.2194 27.5598C24.965 26.4208 26.6193 24.7322 27.7487 22.9367C28.1779 22.2543 28.826 20.9277 29.1203 20.129C29.4169 19.3241 29.7628 17.9273 29.891 17.016C30.021 16.0929 30.0386 13.9574 29.9228 13.1442C29.5763 10.708 28.8032 8.634 27.5196 6.69703C26.9738 5.87326 26.4286 5.20866 25.6691 4.44104C23.3276 2.07453 20.415 0.606808 17.0845 0.115143C16.3663 0.00913736 14.348 -0.0373833 13.5994 0.0348323ZM24.0204 7.84092C24.2109 7.95789 24.3936 8.2643 24.3936 8.46681C24.3936 8.62068 21.4713 21.5462 21.3895 21.7543C21.246 22.1192 20.7049 22.3819 20.3172 22.275C20.2073 22.2447 19.101 21.5308 17.8588 20.6885C16.6166 19.8463 15.5825 19.1572 15.5608 19.1572C15.5392 19.1572 15.041 19.6137 14.4537 20.1715C13.1004 21.457 13.1163 21.4451 12.7607 21.4451C12.5178 21.4451 12.4436 21.4161 12.2733 21.2545C12.092 21.0825 11.9936 20.8311 11.2683 18.6879C10.826 17.3812 10.4347 16.2816 10.3986 16.2444C10.3626 16.2072 9.34241 15.9082 8.13157 15.5799C6.14895 15.0424 5.914 14.9659 5.76858 14.8106C5.66749 14.7026 5.60714 14.5732 5.60714 14.4641C5.60714 14.0481 5.46125 14.1101 11.8008 11.832C15.0297 10.6717 18.9132 9.27438 20.4308 8.7268C21.9484 8.17923 23.2429 7.71725 23.3075 7.70018C23.4905 7.65178 23.8176 7.71637 24.0204 7.84092ZM16.0314 13.0282C13.418 14.5275 11.2586 15.7873 11.2329 15.8278C11.2072 15.8683 11.1858 15.9695 11.1852 16.0527C11.1841 16.2559 12.4439 19.9385 12.5238 19.9652C12.5998 19.9904 12.6177 19.8874 12.7709 18.5413C12.837 17.9605 12.9038 17.4262 12.9194 17.3539C12.938 17.2667 14.3061 16.1133 16.9827 13.9278C19.2021 12.1158 21.0377 10.6042 21.0619 10.5687C21.1419 10.4513 21.0777 10.3285 20.9293 10.3153C20.8289 10.3063 19.2957 11.1555 16.0314 13.0282Z" fill="currentColor"/>
</svg>
