<svg width="43" height="53" fill="none" xmlns="http://www.w3.org/2000/svg"><path fill-rule="evenodd" clip-rule="evenodd" d="M21.041 15.286c-1.406.31-2.4.883-3.434 1.978a6.567 6.567 0 00-1.54 2.792c-.194.767-.195 2.252 0 3.075.534 2.27 2.401 4.153 4.702 4.744.83.213 2.354.214 3.176 0 1.509-.39 2.875-1.352 3.724-2.622.883-1.32 1.209-2.515 1.107-4.057-.085-1.295-.387-2.19-1.084-3.217-1.44-2.12-4.192-3.234-6.65-2.693zm15.793 15.286c-1.533 2.344-2.837 4.261-2.898 4.261-.06 0-2.294-.73-4.964-1.623-2.67-.894-5.135-1.67-5.479-1.726-2.441-.396-4.865.495-6.627 2.436-.228.25-1.75 2.01-3.383 3.909-1.633 1.898-2.999 3.463-3.036 3.477-.037.015-1.576-1.136-3.418-2.557l-3.35-2.584-.254.322c-.14.177-.56.719-.936 1.204l-.682.883 4.49 3.46c2.468 1.903 4.516 3.46 4.55 3.46.032 0 .992-1.083 2.132-2.406l2.072-2.407.026 5.96.026 5.96H29.63l-.037-7.538c-.027-5.504-.07-7.66-.16-7.984-.068-.245-.108-.46-.088-.48.02-.02 1.334.397 2.922.927 1.587.53 2.923.95 2.97.935.046-.015 1.63-2.38 3.518-5.253l3.433-5.226-1.256-.839c-.69-.46-1.268-.837-1.283-.836-.015.002-1.282 1.92-2.815 4.265z" fill="#BE925A"/><path d="M4.948 14.933v-3.046h3.046v3.046H4.948zm0 4.237v-1.191h3.046v4.036l-1.142.052c-1.519.068-1.986.242-2.776 1.031-.749.748-1.004 1.374-.998 2.445.007 1.24.65 2.285 1.785 2.9.598.324.708.35 1.557.348.72 0 1.014-.046 1.389-.219 1.006-.464 1.802-1.517 1.963-2.598l.072-.482h3.023v.34c0 .57-.38 1.866-.759 2.587-1.167 2.222-3.64 3.607-6.136 3.439-1.578-.107-2.91-.728-4.087-1.907-.934-.936-1.5-2.004-1.766-3.333-.61-3.045 1.18-6.118 4.207-7.221l.622-.227zM31.76 1.331c.473-.227 1.157-.477 1.518-.556 3.2-.693 6.444 1.19 7.473 4.338.388 1.189.39 2.709.004 3.888a7.183 7.183 0 01-1.443 2.472c-.532.589-1.74 1.368-2.526 1.63l-.667.222v1.202h-3.046V10.49l1.142-.052c1.518-.069 1.985-.242 2.776-1.032.756-.755 1.006-1.374.994-2.463-.007-.582-.066-.848-.292-1.31-1.355-2.77-5.293-2.524-6.283.393-.09.267-.165.598-.165.736v.25H28.2v-.31c0-.587.324-1.773.693-2.533.546-1.127 1.718-2.287 2.867-2.839zm1.313 19.289v-3.048h3.046v3.046h-3.046z" fill="#ECDFCE"/></svg>