<svg width="42" height="43" fill="none" xmlns="http://www.w3.org/2000/svg"><path fill-rule="evenodd" clip-rule="evenodd" d="M1.198 16.183l-1.072.958L.03 28.162c-.08 9.456-.02 11.162.417 12.01 1.047 2.023.637 1.984 20.681 1.984h18.245v-4.848l-3.038-.143c-3.388-.16-4.969-.767-6.827-2.625-3.057-3.057-3.081-8.646-.05-11.885 1.606-1.718 3.8-2.497 7.04-2.5l2.875-.004v-4.926H2.27l-1.073.958zm6.717 7.488l3.203 3.191 1.246-1.216 1.246-1.217 4.09 4.101c2.251 2.256 4.205 4.101 4.343 4.101.138 0 .251-.591.251-1.314 0-1.282.028-1.313 1.15-1.313h1.15v7.225h-7.226v-1.15c0-1.122.031-1.149 1.314-1.149.722 0 1.313-.113 1.313-.252 0-.14-1.476-1.723-3.28-3.52l-3.279-3.267-1.245 1.216-1.246 1.216-4.08-4.09-4.081-4.09.78-.832c.43-.457.864-.832.965-.832.1 0 1.624 1.437 3.386 3.192zm25.382-.754c-1.237.553-2.97 2.363-3.429 3.578-.866 2.298.043 5.4 2.026 6.912 1.369 1.044 3.685 1.523 7.359 1.523H42V22.45l-3.859.013c-2.496.008-4.207.169-4.844.454zm3.448 5.773c0 1.283-.027 1.314-1.15 1.314-1.121 0-1.149-.031-1.149-1.314 0-1.282.028-1.314 1.15-1.314 1.122 0 1.15.032 1.15 1.314z" fill="#BE925A"/><path d="M7.35 4.88l-.096-2.382-.096-2.38h4.955v1.308c0 1.957-1.375 3.377-3.31 3.42L7.35 4.88z" fill="#ECDFCE"/><path d="M9.233 7.304c3.182-.341 5.482-2.831 5.5-5.955L14.74.117h7.554v1.495c0 1.718.534 2.904 1.86 4.13 1.36 1.259 2.185 1.6 3.866 1.6h1.5v5.255H7.159l.096-2.545.096-2.545 1.882-.203z" fill="#ECDFCE"/><path d="M28.518 5.044a3.904 3.904 0 01-3.925-3.925V.117h4.927v4.927h-1.002z" fill="#ECDFCE"/></svg>