<svg width="41" height="51" fill="none" xmlns="http://www.w3.org/2000/svg"><path fill-rule="evenodd" clip-rule="evenodd" d="M18.587.061c-2.214.35-4.091 1.292-5.723 2.875a10.33 10.33 0 00-2.844 4.852c-.224.843-.254 1.14-.254 2.571 0 1.429.03 1.73.252 2.563a10.578 10.578 0 007.519 7.518c.833.223 1.134.253 2.563.253 1.431 0 1.728-.03 2.57-.255a10.559 10.559 0 007.51-7.516c.218-.82.252-1.15.257-2.514.004-1.29-.032-1.717-.205-2.403-.472-1.875-1.303-3.397-2.602-4.763C25.64 1.15 23.29.092 20.443.007c-.702-.02-1.537.004-1.856.054zM10.73 20.727c-.987.333-2.515 1.103-3.5 1.765C3.201 25.2.621 29.447.084 34.25c-.072.643-.098 2.82-.077 6.328.033 5.252.037 5.357.252 5.928.616 1.634 1.72 2.752 3.34 3.383l.655.255 7.201.028 7.2.028-.064-.568c-.24-2.098-1.605-3.802-3.65-4.559-.54-.2-.807-.219-3.819-.27-4.552-.078-4.268.184-4.268-3.93 0-3.14.032-3.294.764-3.705.485-.273.895-.28 1.397-.023.695.354.783.673.783 2.83v1.858l2.428.044c2.285.04 2.48.058 3.292.305 1.733.526 3.048 1.4 4.219 2.804l.363.435.363-.435c1.171-1.4 2.589-2.324 4.376-2.854.613-.181 1.026-.215 3.134-.254l2.428-.045v-1.858c0-1.63.023-1.903.186-2.223.216-.423.822-.804 1.279-.804.493 0 1.058.344 1.281.782.184.36.198.575.198 3.142 0 2.566-.014 2.782-.198 3.142-.364.715-.425.727-4.07.789-3.012.051-3.279.07-3.819.27-2.045.757-3.41 2.461-3.65 4.56l-.065.567 7.201-.028 7.2-.028.656-.255c1.62-.631 2.724-1.75 3.34-3.383.215-.57.22-.68.253-5.88.023-3.614-.002-5.64-.081-6.376-.645-6.021-4.679-11.263-10.302-13.384l-1.01-.381-.674.514c-4.693 3.575-11.28 3.585-16.012.023l-.699-.526-.686.231zm7.556 5.175c.432.135 1.129.503 1.643.867.136.096.207.096.343 0 .53-.376 1.218-.735 1.693-.884.74-.234 2.22-.226 2.943.015 2.08.692 3.435 2.55 3.433 4.705 0 1.127-.228 1.908-.818 2.81-.405.621-6.314 6.548-6.756 6.778-.2.104-.5.189-.666.189-.167 0-.466-.085-.667-.19-.44-.228-6.348-6.152-6.758-6.776-.559-.85-.746-1.442-.796-2.517-.038-.822-.01-1.114.159-1.668a5.042 5.042 0 013.794-3.472c.546-.118 1.865-.041 2.453.143z" fill="#BE925A"/><path d="M14.993 31.531c-.534-1.025.03-2.418 1.135-2.804.431-.15.987-.139 1.39.03.195.081.677.454 1.071.828 1.236 1.174 1.78 1.168 3.066-.035.841-.787 1.272-.991 1.935-.916 1.04.117 1.724.833 1.79 1.873.032.487-.003.702-.16 1.004-.11.211-1.306 1.488-2.66 2.836L20.102 36.8l-2.46-2.453c-1.352-1.348-2.544-2.616-2.648-2.816z" fill="#ECDFCE"/></svg>