<svg width="38" height="53" fill="none" xmlns="http://www.w3.org/2000/svg"><path fill-rule="evenodd" clip-rule="evenodd" d="M1.652 1.028C1.145 1.188.28 2.083.126 2.61.028 2.937 0 8.553 0 27.315v24.28l.253.254c.252.252.27.254 2.225.254s1.973-.003 2.224-.254l.254-.253V27.315c0-18.46-.03-24.38-.123-24.69-.18-.601-.913-1.368-1.497-1.567a2.745 2.745 0 00-1.684-.03z" fill="#ECDFCE"/><path d="M20.289 4.251c4.26-.793 5.201-.95 6.866-1.137.872-.099 2.11-.135 3.82-.112 2.652.035 3.939.188 5.809.692 1.36.366 1.211-1.378 1.211 14.182 0 13.333-.002 13.448-.208 13.71-.276.35-.528.378-1.38.151-1.595-.425-3.08-.617-5.174-.668-2.986-.072-5.33.202-10.366 1.212-4.055.812-6.394 1.11-9.457 1.202-1.864.056-3.77-.045-4.569-.24l-.232-.058V5.103l.232.056c1.492.36 5.81.345 8.389-.029.852-.123 3.128-.519 5.059-.879z" fill="#BE925A"/></svg>