<svg width="51" height="51" fill="none" xmlns="http://www.w3.org/2000/svg"><path fill-rule="evenodd" clip-rule="evenodd" d="M24.354 20.809c-2.315.496-4.418 2.249-5.3 4.417-.712 1.754-.708 3.876.011 5.585.93 2.207 3.05 3.975 5.273 4.397.663.126.784.276.222.276-.178 0-.652.084-1.054.187-3.824.978-6.624 3.75-7.656 7.578-.205.762-.228 1.095-.267 3.904l-.043 3.07h20.673l-.043-3.07c-.038-2.713-.066-3.157-.245-3.81-.907-3.311-3.007-5.823-5.921-7.08-.908-.393-2.305-.78-2.814-.78-.503 0-.475-.164.04-.234 1.26-.173 2.798-.996 3.847-2.059 1.353-1.371 2.008-2.839 2.135-4.783.273-4.173-3.189-7.797-7.405-7.753a8.81 8.81 0 00-1.453.155z" fill="#BE925A"/><path d="M22.863 5.553c.253-.054.398-.306 1.613-2.801C25.21 1.244 25.84.01 25.876.01c.037 0 .668 1.235 1.404 2.746 1.303 2.678 1.344 2.747 1.662 2.802.591.104 5.676.84 5.8.84.066 0-.894.986-2.134 2.192l-2.254 2.192.517 3.028c.284 1.665.504 3.04.488 3.057-.016.016-1.255-.613-2.753-1.397l-2.724-1.426-2.726 1.429c-1.5.786-2.741 1.414-2.759 1.397-.017-.018.2-1.395.485-3.06l.517-3.028-2.252-2.192c-1.238-1.206-2.205-2.193-2.149-2.193.154 0 5.543-.776 5.865-.844zm15.92 10.023c.255-.054.397-.3 1.614-2.801.733-1.508 1.363-2.742 1.398-2.742.036 0 .665 1.234 1.398 2.742 1.222 2.512 1.357 2.746 1.614 2.798.154.031 1.607.238 3.227.459 1.62.221 2.955.41 2.966.421.01.01-1.04.985-2.333 2.165-1.293 1.18-2.35 2.215-2.35 2.3 0 .086.222 1.458.495 3.049.273 1.59.483 2.906.467 2.923-.017.016-1.256-.612-2.754-1.396l-2.723-1.427-2.728 1.428c-1.5.785-2.742 1.414-2.759 1.397-.017-.017.202-1.393.486-3.058l.517-3.028-2.249-2.193c-1.237-1.206-2.204-2.192-2.149-2.192.152 0 5.544-.777 5.863-.845zM7.06 15.533c.137-.05.599-.9 1.514-2.786.725-1.493 1.347-2.714 1.383-2.714.036 0 .658 1.22 1.382 2.71.723 1.49 1.351 2.732 1.395 2.76.08.049 5.787.91 6.062.915.078.001-.871.99-2.11 2.195l-2.251 2.193.517 3.027c.284 1.666.504 3.041.487 3.057-.016.017-1.254-.612-2.752-1.396l-2.724-1.427-2.728 1.428c-1.5.785-2.742 1.413-2.76 1.396-.016-.017.193-1.333.466-2.924s.496-2.963.496-3.048L0 16.419l3.776-.39c1.697-.233 3.175-.457 3.283-.496z" fill="#ECDFCE"/><path d="M37.836 30.196a7.605 7.605 0 011.327-.507c1.375-.36 2.936-.174 4.236.508.797.417 1.99 1.61 2.407 2.407a5.927 5.927 0 01.513 4.197c-.284 1.11-.72 1.864-1.572 2.715-.841.842-1.606 1.288-2.676 1.564-.761.196-.754.212.167.399 1.753.356 3.482 1.558 4.521 3.144.873 1.332 1.228 2.623 1.228 4.467v1.134h-8.844v-2.628c-.002-2.75-.102-3.834-.48-5.18-.107-.377-.175-.714-.153-.75.055-.09.859-.286 1.168-.286.138 0 .25-.044.25-.098 0-.054-.109-.098-.243-.098s-.525-.093-.87-.206l-.626-.206-.334-.7c-.267-1.274-1.644-2.769-2.3-3.357-.83-.92-.834-.927-.834-1.455 0-.717.319-1.917.706-2.656.28-.535 1.154-1.765 2.409-2.408zm-30.83 1.059c.84-.839 1.6-1.285 2.676-1.566 1.376-.36 2.937-.174 4.237.508.797.417 1.99 1.61 2.407 2.407.387.74.707 1.939.707 2.656 0 .528-.005.535-.835 1.455-.921 1.02-1.788 2.285-2.3 3.358l-.334.7-.626.205c-.345.113-.736.206-.87.206s-.243.044-.243.098c0 .054.113.098.25.098.31 0 1.114.197 1.169.286.022.036-.047.373-.153.75-.379 1.346-.48 2.43-.48 5.18v2.628H3.767V49.09c0-2.371.59-3.94 2.06-5.486.376-.541 1.64-1.725 3.688-2.126.921-.186.928-.203.167-.398-1.07-.276-1.834-.722-2.676-1.564-.851-.85-1.287-1.605-1.571-2.715a5.514 5.514 0 010-2.83c.284-1.11.72-1.864 1.571-2.716z" fill="#BE925A"/></svg>