<svg width="51" height="49" fill="none" xmlns="http://www.w3.org/2000/svg"><path fill-rule="evenodd" clip-rule="evenodd" d="M27.782.801c-1.637.44-2.987 1.709-3.631 3.413-.209.552-.216.726-.249 5.905-.037 5.86-.02 6.087.53 7.231a5.25 5.25 0 003.126 2.739c.497.16.712.278.712.39 0 .277.556 1.354.9 1.747a4.24 4.24 0 001.76 1.165c.675.232 1.882.258 2.557.054.254-.076 1.574-.783 2.933-1.57l2.472-1.433 3.89-.053c3.863-.052 3.895-.055 4.599-.309 1.408-.509 2.456-1.437 3.08-2.73.54-1.116.564-1.452.528-7.28-.032-5.13-.04-5.304-.248-5.856-.655-1.736-1.993-2.98-3.674-3.418C46.214.574 28.61.578 27.782.801zm14.46 5.532c1.037.529 1.136 2.016.179 2.698l-.337.24h-9.291L32.435 9c-.922-.703-.818-2.127.194-2.661.362-.191.575-.2 4.796-.204 4.255-.004 4.433.003 4.817.199zm.179 5.472c.444.318.75 1.006.663 1.491-.105.58-.483 1.07-.97 1.255-.378.144-.948.16-4.825.135l-4.396-.029-.406-.269c-.987-.653-.894-2.12.172-2.69.328-.176.614-.185 4.887-.16l4.538.027.337.24z" fill="#ECDFCE"/><path d="M4.47 19.653c.93-3.442 3.576-6.016 6.943-6.754 1.153-.253 3.305-.2 4.371.107a9.292 9.292 0 016.414 6.487c.262.968.354 2.749.192 3.748-.74 4.588-4.775 7.897-9.38 7.693-1.446-.064-2.45-.323-3.741-.965-2.28-1.134-3.927-3.111-4.701-5.643-.246-.802-.274-1.047-.28-2.438-.004-1.211.035-1.695.181-2.235zm-.544 17.394c2.292-2.284 5.155-3.622 8.31-3.884a13.419 13.419 0 0112.286 5.963 13.211 13.211 0 012.106 5.503c.288 1.96.156 2.679-.59 3.237-.275.204-.33.205-12.538.231-13.572.03-12.685.072-13.22-.632-.278-.366-.287-.413-.278-1.482.026-3.245 1.438-6.46 3.924-8.936z" fill="#BE925A"/></svg>