<svg width="51" height="51" fill="none" xmlns="http://www.w3.org/2000/svg"><path d="M19.053 42.027l2.918-.004.3.004c.497-.004.606-.004 4.11 0l3.512.003v-2.396c0-2.204.016-2.426.2-2.788a1.38 1.38 0 01.594-.594c.383-.196.575-.2 7.372-.2h6.98v-9.8l-.225.206c-.696.64-1.328.773-1.967.414-.695-.39-.977-1.238-.636-1.91.226-.448 3.197-3.434 3.646-3.666.468-.242.884-.242 1.353 0 .448.232 3.419 3.218 3.645 3.665.341.673.06 1.521-.636 1.911-.638.36-1.27.226-1.967-.414l-.224-.206v5.8c0 5.617-.007 5.813-.2 6.194-.13.253-.342.465-.595.594-.383.195-.574.2-7.372.2h-6.979v2.396c0 2.204-.016 2.427-.2 2.789-.13.253-.341.464-.595.594-.382.195-.574.2-7.272.2h-6.88v2.395c0 2.205-.015 2.427-.2 2.79-.129.252-.34.464-.594.593-.384.196-.572.2-8.173.2-7.6 0-7.79-.004-8.173-.2-.443-.225-.795-.8-.795-1.294s.352-1.068.795-1.294c.367-.187.587-.2 3.311-.204 2.896-.003 2.122-.02 2.52-.02h1.595c.298 0 .17.011 3.213.017l3.512.006v-2.395c0-2.204.016-2.427.201-2.789.13-.253.34-.464.594-.594.367-.187.587-.2 3.312-.203z" fill="#ECDFCE"/><path d="M7.735 10.932c.348-.752 1.12-1.398 2.03-1.697.137-.045.59-.068 1.008-.052.873.034 1.459.31 1.963.92.163.198.802 1.407 1.42 2.688l1.125 2.328 4.69.029c4.558.027 4.704.034 5.154.242.593.275 1.242.924 1.513 1.515.294.643.294 1.778 0 2.421-.27.591-.92 1.24-1.513 1.515-.454.21-.574.215-6.068.242l-5.605.028v3.832l3.673 1.223c3.843 1.28 4.159 1.424 4.709 2.162.2.268.764 1.828 1.94 5.364 1.573 4.725 1.657 5.016 1.606 5.571-.227 1.94-1.715 2.599-2.81 2.764-.878.131-2.081-.79-2.573-1.266-.172-.248-.764-1.864-1.597-4.364l-1.324-3.97-3.97-1.324c-2.329-.776-4.122-1.43-4.339-1.58-.476-.33-.935-.973-1.138-1.596-.144-.442-.158-1.349-.134-8.516.028-7.937.03-8.026.24-8.479z" fill="#BE925A"/><path fill-rule="evenodd" clip-rule="evenodd" d="M11.06.09C9.62.37 8.123 1.763 7.697 3.22c-.928 3.166 1.731 6.277 4.915 5.75 3.158-.524 4.773-3.936 3.17-6.698C14.802.585 12.94-.276 11.06.09z" fill="#BE925A"/><path d="M11.352 39.882c-.536 3.208-1.024 5.987-1.086 6.175-.184.66-1.01 1.968-2.843 1.928-1.833-.04-2.664-1.585-2.85-2.352-.115-.536-.068-.888.957-7.09.594-3.59 1.106-6.604 1.138-6.698.051-.147.147-.11.68.261.487.339 1.058.578 2.64 1.107 1.11.371 2.09.712 2.178.756.14.071.05.73-.814 5.913zM.054 18.116c0-1.196.15-1.426 2.408-3.703 1.079-1.087 1.975-1.976 1.992-1.976.016 0 .03 2.567.029 5.704l-.002 5.705-1.99-2c-2.29-2.304-2.437-2.53-2.437-3.73z" fill="#BE925A"/></svg>