<svg width="50" height="50" fill="none" xmlns="http://www.w3.org/2000/svg"><path fill-rule="evenodd" clip-rule="evenodd" d="M37.25.122c-.312.16-11.067 12.679-11.352 13.214-.198.373-.16 1.03.081 1.422.351.567.656.646 2.49.646h1.62v6.057l2.858.001c1.572 0 3.117.043 3.433.095 1.287.21 2.57 1.128 3.135 2.245.546 1.077.536.836.538 13.302.001 10.732-.024 11.99-.253 12.718-.052.167.064.175 2.193.147 2.47-.033 2.493-.038 2.989-.703.201-.27.201-.273.227-17.065l.025-16.797h1.86c1.451 0 1.922-.031 2.14-.144.61-.315.905-1.027.703-1.697-.075-.248-1.764-2.3-5.557-6.748C41.383 3.3 38.815.34 38.673.235c-.353-.26-1.03-.314-1.423-.113z" fill="#ECDFCE"/><path d="M.512 24.705c.134-.123.37-.263.525-.31.155-.045 8.065-.087 17.577-.092l17.296-.008.436.22c.318.16.495.337.656.655.217.432.22.478.22 4.568v4.13h-7.72v-1.245c0-1.397-.104-1.704-.707-2.082-.4-.25-1.184-.22-1.562.062-.515.383-.608.675-.646 2.02l-.035 1.246h-15.88l-.04-1.246c-.03-.974-.078-1.31-.215-1.538-.26-.435-.622-.662-1.135-.71-.514-.05-.885.1-1.271.512-.233.249-.246.327-.276 1.622l-.032 1.36H0v-4.155c0-4.468.008-4.544.512-5.009zm12.354-7.639c.238-.38.519-.584.958-.693.16-.04 2.447-.066 5.08-.057 4.61.016 4.8.024 5.129.215.202.117.431.374.561.63.206.407.22.556.22 2.368v1.933H21.89l-.028-1.1-.027-1.098h-6.253l-.027 1.099-.028 1.099h-2.939l.032-2.027c.03-1.888.046-2.051.246-2.37zM.674 49.669C-.024 49.202 0 49.454 0 42.782v-5.985l3.834.026 3.835.025.049.995c.057 1.166.198 1.437.902 1.73.57.237 1.035.155 1.477-.263.404-.38.55-.86.551-1.802v-.709h6.422l.048.905c.053 1.02.204 1.406.682 1.746.625.445 1.682.222 2.058-.435.067-.117.143-.652.17-1.19l.05-.977 3.247-.025 3.249-.026v.81c0 .65.044.898.22 1.242.407.798 1.076 1.052 1.858.706.66-.292.795-.564.852-1.725l.05-.982 3.837-.025 3.837-.026-.027 6.034c-.03 6.713-.001 6.425-.696 6.855l-.331.205H1.005l-.332-.222z" fill="#BE925A"/></svg>