<svg width="50" height="50" fill="none" xmlns="http://www.w3.org/2000/svg"><path fill-rule="evenodd" clip-rule="evenodd" d="M0 24.814c.002 6.808 2.589 13.093 7.338 17.831 3.968 3.959 8.775 6.317 14.573 7.149 1.458.209 5.091.155 6.734-.1 4.138-.643 7.936-2.208 11.16-4.598l.77-.571 1.497 1.499c.823.824 1.513 1.482 1.534 1.462.02-.02.639-3.543 1.374-7.829.913-5.315 1.303-7.8 1.227-7.82-.061-.016-3.335.524-7.275 1.2l-7.785 1.333-.62.105 1.328 1.332c.73.732 1.329 1.36 1.329 1.396 0 .114-1.682 1.028-2.538 1.379-1.98.811-3.405 1.084-5.66 1.084-1.835 0-2.735-.124-4.293-.593-3.22-.97-6.284-3.272-8.08-6.071-1.519-2.37-2.231-4.747-2.336-7.798l-.057-1.684H0v1.294z" fill="#BE925A"/><path d="M13.03 3.053A25.383 25.383 0 0122.692.108C34.257-.968 45.06 6.12 48.705 17.177c.823 2.497 1.15 4.43 1.236 7.296L50 26.448H39.75l-.053-1.635c-.03-.9-.126-2.008-.214-2.464-1.174-6.07-5.668-10.618-11.69-11.83-1.55-.311-4.25-.31-5.701.002-1.768.38-4.177 1.358-5.124 2.08l-.23.175 1.353 1.358 1.352 1.358-.815.147-14.87 2.497c-.027-.027.554-3.57 1.292-7.873l1.34-7.825 1.514 1.508 1.514 1.507.293-.241c.88-.602 2.774-1.875 3.32-2.16z" fill="#BE925A"/><path d="M31.33 26.937v-3.904h3.903v3.904H31.33zm-8.297 0v-3.904h3.904v3.904h-3.904zm-8.296 0v-3.904h3.904v3.904h-3.904z" fill="#ECDFCE"/></svg>