<svg width="65" height="51" fill="none" xmlns="http://www.w3.org/2000/svg"><path fill-rule="evenodd" clip-rule="evenodd" d="M15.212 1.427c-.764.284-1.267.735-1.638 1.469C13.14 3.752.1 46.436.012 47.291c-.124 1.179.737 2.524 1.934 3.024.589.246 6.358.282 7.15.044.694-.208 1.556-1.005 1.812-1.675.117-.305.848-2.848 1.625-5.652l1.412-5.096 7.073-.033 7.072-.032 1.632 5.445c1.688 5.633 1.87 6.084 2.682 6.65.71.494 1.112.542 4.595.542 3.71 0 3.885-.029 4.738-.778.706-.62 1-1.289.991-2.255-.007-.718-.845-3.517-6.661-22.237-3.66-11.78-6.746-21.665-6.858-21.967a3.31 3.31 0 00-1.488-1.7c-.508-.272-.616-.277-6.266-.302-4.761-.021-5.834.006-6.243.158zm6.255 11.05c.21.293 4.915 16.434 4.915 16.863 0 .17-.63.194-5.37.194-4.186 0-5.37-.035-5.37-.157 0-.086.98-3.898 2.176-8.471 1.48-5.653 2.251-8.396 2.412-8.57.323-.345.938-.276 1.237.14z" fill="#BE925A"/><path d="M48.557.595c.209-.22.493-.45.632-.51.14-.06 1.295-.097 2.568-.082l2.316.028.496.532.496.532v8.839l4.16.04c3.973.037 4.176.05 4.51.3.817.61.866.771.905 3.001.04 2.26-.054 2.646-.771 3.173-.34.249-.561.264-4.549.325l-4.192.063-.063 4.445c-.06 4.243-.075 4.46-.325 4.8-.51.695-.921.8-3.15.8s-2.64-.105-3.15-.8c-.25-.34-.264-.557-.325-4.8l-.063-4.445-4.192-.063c-3.988-.06-4.21-.076-4.549-.325-.717-.527-.81-.912-.771-3.173.04-2.23.087-2.39.906-3.002.332-.248.536-.262 4.504-.3l4.156-.039.036-4.47.036-4.47.38-.4z" fill="#ECDFCE"/></svg>