<svg width="54" height="49" fill="none" xmlns="http://www.w3.org/2000/svg"><path fill-rule="evenodd" clip-rule="evenodd" d="M.66 22.402a1.56 1.56 0 00-.417.326c-.206.228-.21.399-.237 10.779-.019 7.213.007 10.612.082 10.752.105.196.237.205 3.13.205 2.996 0 3.024-.002 3.299-.24.246-.211.565-1.249 2.832-9.22 2.756-9.69 2.69-9.39 2.234-10.284a2.351 2.351 0 00-.555-.675c-.632-.481-3.002-1.137-5.352-1.481-1.248-.183-4.72-.295-5.016-.162zm14.435 4.376c-.035.216-1.072 3.942-2.305 8.281-1.232 4.34-2.206 7.924-2.165 7.967.126.129 5.279 2.309 7.178 3.036 3.379 1.294 6.343 2.2 8.667 2.649 1.47.284 3.447.245 5.068-.099 3.502-.744 8.313-2.559 13.219-4.987 3.968-1.964 6.463-3.493 7.758-4.753.844-.82.884-.948.6-1.903-.459-1.544-2.325-2.52-4.596-2.404-1.794.092-3.502.645-8.778 2.84-5.184 2.159-6.915 2.693-8.725 2.693-1.815 0-3.979-.571-6.25-1.648-1.185-.562-3.09-1.61-3.03-1.667.018-.017.69.081 1.495.218 1.973.335 4.475.642 6.374.782 2.7.199 4.384-.122 5.232-.996.518-.534.725-1.18.641-1.996-.228-2.21-2.597-3.573-7.618-4.38-.902-.144-1.75-.263-1.883-.263-.134 0-.83-.333-1.547-.74-3.327-1.89-4.835-2.462-7.534-2.859-1.677-.246-1.724-.24-1.8.23z" fill="#BE925A"/><path fill-rule="evenodd" clip-rule="evenodd" d="M25.84 3.736c-9.368 4.05-9.097 3.918-9.205 4.494a1.65 1.65 0 000 .508c.108.576-.166.442 9.23 4.5 7.937 3.427 8.757 3.766 9.024 3.733.164-.02 2.956-1.19 6.332-2.652l6.04-2.617.035 6.207c.04 6.895.007 6.46.514 6.82.178.127.327.166.636.166.435 0 .666-.12.942-.488.145-.194.146-.256.165-6.746l.019-6.55-.161-.1c-.103-.064-2.78-.434-7.479-1.034-4.025-.513-7.42-.966-7.545-1.005-.49-.154-.806-.75-.699-1.318.065-.342.491-.773.83-.836.252-.047 16.158 1.947 16.699 2.094.17.046.34.17.485.353.298.375.53.38.913.016.461-.438.486-1.055.062-1.53-.203-.226-1.221-.684-8.862-3.988-5.98-2.585-8.73-3.741-8.952-3.761-.295-.028-1.015.27-9.024 3.734zM23.5 14.965c-.063.075-.079.754-.061 2.605.023 2.486.025 2.508.21 3.053.775 2.285 3.437 4.185 6.973 4.976 1.584.355 2.23.42 4.17.42s2.585-.065 4.17-.42c3.53-.79 6.154-2.659 6.96-4.957l.2-.568.024-2.459c.025-2.619.01-2.751-.306-2.751-.095 0-2.353.943-5.019 2.095-2.665 1.153-5.023 2.142-5.24 2.198-.5.13-1.079.13-1.574 0-.213-.055-2.57-1.044-5.236-2.197-2.667-1.153-4.925-2.096-5.018-2.096-.093 0-.208.045-.254.1z" fill="#ECDFCE"/></svg>