<svg width="51" height="44" fill="none" xmlns="http://www.w3.org/2000/svg"><path fill-rule="evenodd" clip-rule="evenodd" d="M.523.305C.354.408.163.62.1.778.01.995-.012 5.274.008 18.588l.026 17.524.325.29.326.291h16.142v4.672l-1.852.031-1.852.031-.29.326c-.5.559-.358 1.324.308 1.668.25.13 1.846.15 12.377.149 11.652 0 12.1-.007 12.396-.188a1.049 1.049 0 00.052-1.777c-.313-.21-.445-.227-1.769-.227h-1.43v-4.686H50.31l.325-.29.326-.291.026-17.553c.028-19.305.07-17.96-.57-18.291-.26-.134-3.104-.151-24.94-.15C1.54.117.821.122.523.304zm48.295 18.1v16.096H2.176V2.309h46.642v16.096z" fill="#ECDFCE"/><path fill-rule="evenodd" clip-rule="evenodd" d="M4.49 3.955c-.656.285-.62-.553-.62 14.251 0 14.862-.04 13.971.641 14.256.303.126 3.088.145 20.943.145 18.547 0 20.626-.015 20.925-.157.689-.327.645.636.645-14.244 0-14.946.046-13.969-.661-14.264-.502-.21-41.39-.197-41.874.013zm24.738 4.06c.298.299.345.44.6 1.807.264 1.402.27 1.5.118 1.82a1.115 1.115 0 01-1.183.596c-.582-.11-.745-.389-1.024-1.757-.386-1.897-.36-2.265.184-2.597.485-.296.924-.252 1.305.131zm-5.497 1.11c.42.18 2.132 1.938 2.217 2.278.102.405-.127.96-.486 1.18-.373.227-.675.242-1.041.05-.422-.22-2.091-1.979-2.168-2.284-.105-.421.146-.958.552-1.176.415-.222.509-.227.926-.049zm10.786 6.5c7.42 2.578 7.34 2.542 7.36 3.3.006.216-.063.505-.153.642-.099.15-.81.59-1.816 1.121-.91.48-1.654.904-1.654.942 0 .037.474.538 1.053 1.113 1.143 1.133 1.339 1.412 1.339 1.907 0 .282-.16.484-1.225 1.55-1.108 1.107-1.26 1.225-1.58 1.225-.45 0-.86-.301-2.027-1.484-.492-.5-.926-.908-.966-.908-.039 0-.459.742-.933 1.648-.93 1.779-1.121 1.992-1.768 1.975-.754-.02-.726.044-3.24-7.21-1.262-3.646-2.325-6.73-2.362-6.854-.16-.547.419-1.315.995-1.32.11-.001 3.25 1.058 6.977 2.353zm-11.07-1.164c1.125.222 1.528.343 1.71.514.535.503.364 1.462-.311 1.744-.322.134-.471.124-1.811-.127-1.127-.21-1.524-.326-1.738-.506-.57-.48-.435-1.475.24-1.768.41-.178.21-.193 1.91.143zm5.963 1.827c.026.068.687 1.963 1.47 4.21.781 2.248 1.454 4.149 1.494 4.225.048.092.287-.275.706-1.086.651-1.26.958-1.593 1.468-1.593.39-.001.621.176 1.928 1.47.97.96 1.302 1.233 1.44 1.18.145-.056-.06-.308-1.127-1.384-1.348-1.36-1.525-1.591-1.525-1.983.001-.513.339-.825 1.592-1.475.834-.432 1.173-.656 1.078-.71-.145-.08-8.435-2.979-8.522-2.979-.027 0-.028.056-.002.125z" fill="#BE925A"/></svg>