<svg width="49" height="57" fill="none" xmlns="http://www.w3.org/2000/svg"><path fill-rule="evenodd" clip-rule="evenodd" d="M24.538.119c-6.513.68-12.914 4.724-16.415 10.37-2.436 3.926-3.35 7.563-3.351 13.32v1.898l-2.13 3.872C1.471 31.71.398 33.727.26 34.062c-.287.688-.343 1.75-.13 2.458.182.608.817 1.301 1.473 1.607.489.227.73.261 1.865.262l1.304.001.001 3.912c0 2.152.052 4.237.114 4.634.32 2.033 1.933 3.684 3.938 4.028.598.102 1.022.065 3.447-.3 1.521-.23 2.903-.445 3.071-.478l.305-.06v6.142l.276.276.276.276 9.407-.034c10.452-.037 9.836.006 11.516-.802a8.424 8.424 0 003.882-3.876c.78-1.622.766-1.487.808-7.997l.037-5.877.98-1.012c2.81-2.905 4.724-6.592 5.617-10.817.398-1.883.504-5.288.224-7.214-.947-6.523-4.387-11.988-9.828-15.61C34.714.833 29.584-.409 24.538.12zm3.204 6.726c.212.107.5.364.638.571.224.336.252.512.251 1.61 0 1.354-.11 1.662-.736 2.075-.426.28-1.32.28-1.745 0-.625-.413-.735-.722-.736-2.076 0-1.097.027-1.273.251-1.609.29-.435.877-.765 1.358-.765.183 0 .506.087.719.194zm-9.897 4.178c.518.27 1.761 1.645 1.85 2.047.236 1.078-.511 2.015-1.606 2.015-.623 0-.934-.187-1.79-1.074-.584-.606-.75-.857-.813-1.224-.104-.618.23-1.385.736-1.694.433-.263 1.187-.296 1.623-.07zm19.978.07c.5.306.84 1.077.738 1.679-.058.345-.24.622-.806 1.221-.844.895-1.168 1.092-1.799 1.092-1.084 0-1.813-.891-1.611-1.97.08-.425 1.145-1.649 1.778-2.04.447-.277 1.229-.269 1.7.018zm-9.524 2.556c3.232.523 5.87 2.976 6.675 6.205.194.78.225 1.16.179 2.22-.095 2.206-.84 3.88-2.442 5.49l-.877.881-.27 2.226c-.282 2.336-.448 3.042-.87 3.708-.384.608-1.225 1.332-1.932 1.663-.55.258-.77.295-1.742.295-1.03 0-1.166-.026-1.843-.36-.884-.435-1.664-1.232-2.067-2.112-.235-.513-.349-1.101-.592-3.062l-.3-2.426-.567-.496c-2.37-2.073-3.373-5.636-2.422-8.597.439-1.367.997-2.254 2.122-3.371.82-.813 1.189-1.09 1.954-1.461 1.695-.823 3.284-1.079 4.994-.803zm-12.543 6.525c.617.33.835.711.835 1.459 0 1.21-.621 1.664-2.275 1.664-1.655 0-2.276-.454-2.276-1.664 0-.748.218-1.129.835-1.46.546-.292 2.335-.292 2.881 0zm25.374-.026c.59.28.875.764.875 1.485 0 .453-.064.7-.248.957-.389.546-.857.707-2.044.707-1.202 0-1.666-.172-2.062-.765-.528-.79-.219-1.94.638-2.37.525-.263 2.296-.272 2.841-.014z" fill="#BE925A"/><path d="M27.034 33.063c-.694 0-.979-.421-1.104-1.637l-.06-.582h2.34l-.072.582c-.125 1.017-.181 1.186-.472 1.414-.156.123-.44.223-.632.223zm-3.721-8.221c-2.267-2.82-.887-6.98 2.597-7.826 1.961-.477 4.076.368 5.164 2.063 1.418 2.21.826 5.195-1.318 6.651-.778.529-.993.8-1.084 1.369l-.067.416h-3.19v-.306c-.001-.47-.36-.953-1.087-1.463-.364-.255-.822-.662-1.015-.904z" fill="#ECDFCE"/></svg>