<svg width="49" height="50" fill="none" xmlns="http://www.w3.org/2000/svg"><path fill-rule="evenodd" clip-rule="evenodd" d="M0 29.777c0 10.006.034 15.478.098 15.815a4.358 4.358 0 003.433 3.432c.712.136 41.226.136 41.938 0a4.358 4.358 0 003.433-3.432c.064-.337.098-5.809.098-15.815v-15.3H0v15.3zm39.624-12.044c.686.35.763.642.762 2.89 0 2.117-.083 3.107-.392 4.717-.358 1.864-1.323 4.433-2.197 5.848-.32.518-.796.707-1.771.707-.75 0-.822.016-.763.168.035.092.154.472.263.844.313 1.061.243 1.25-.87 2.343-2.261 2.223-4.89 3.767-8.075 4.742l-.55.169V41.2c0 1.255-.164 1.682-.763 1.987-.37.19-.546.193-9.381.193s-9.011-.004-9.382-.193c-.424-.216-.763-.768-.763-1.243 0-.475.339-1.026.763-1.243.37-.188.549-.192 8.517-.192h8.138v-2.321c0-1.276.046-2.816.102-3.421.616-6.725 4.703-12.652 10.745-15.589 1.34-.65 2.19-.97 3.604-1.352 1.218-.329 1.523-.343 2.013-.093z" fill="#BE925A"/><path fill-rule="evenodd" clip-rule="evenodd" d="M36.783 21.087c-3.241 1.198-6.164 3.531-8.048 6.424-1.73 2.658-2.7 5.868-2.703 8.95v.785l.645-.24a16.92 16.92 0 005.46-3.302l.487-.441-.422-1.282c-.233-.705-.424-1.39-.424-1.521 0-.466.34-1.03.75-1.239.338-.172.564-.197 1.802-.198l1.415-.002.322-.731c.942-2.137 1.526-4.922 1.432-6.83l-.031-.626-.685.253z" fill="#BE925A"/><path fill-rule="evenodd" clip-rule="evenodd" d="M3.456.226C1.813.549.416 1.974.098 3.653.042 3.948 0 5.758 0 7.887v3.72h49v-3.72c0-2.13-.042-3.939-.098-4.234A4.358 4.358 0 0045.47.22C44.83.1 4.075.104 3.456.226zm39.039 5.831c.424.217.763.768.763 1.243 0 .475-.339 1.026-.763 1.243-.37.188-.55.193-7.85.193s-7.482-.005-7.85-.193c-.425-.217-.764-.768-.764-1.243 0-.46.339-1.025.743-1.238.347-.183.58-.189 7.85-.193 7.325-.004 7.502 0 7.87.188zm-34.667-.01c.415.211.785.802.785 1.253 0 .711-.724 1.436-1.435 1.436-.475 0-1.026-.339-1.243-.763-.244-.479-.244-.867 0-1.345.349-.684 1.188-.942 1.893-.582zm5.838 0c.415.211.785.802.785 1.253 0 .711-.725 1.436-1.435 1.436-.475 0-1.027-.339-1.243-.763-.244-.479-.244-.867 0-1.345.349-.684 1.188-.942 1.893-.582zM20.29 7.3c0-.451-.37-1.042-.785-1.254-.706-.36-1.545-.102-1.894.582-.243.478-.243.866 0 1.345.217.424.769.763 1.244.763.71 0 1.435-.725 1.435-1.436z" fill="#ECDFCE"/></svg>