<svg width="52" height="52" fill="none" xmlns="http://www.w3.org/2000/svg"><path fill-rule="evenodd" clip-rule="evenodd" d="M37.08 4.104c-3.71 2.257-6.782 4.14-6.827 4.186-.045.045.695.442 1.645.883.95.44 1.75.84 1.78.887.07.113-1.202 1.958-2.25 3.264-4.208 5.244-9.654 9.169-16.014 11.54-2.341.874-5.564 1.667-8 1.97l-1.066.132.034 1.466c.019.806.056 1.5.082 1.543.067.107 2.769.093 4.962-.026 3.72-.202 7.015-.667 10.048-1.416 6.697-1.654 11.17-4.1 15.601-8.53 1.692-1.692 2.84-3.04 4.168-4.89.457-.637.872-1.146.923-1.132.05.015.984.443 2.074.95 1.09.509 2 .907 2.022.885.047-.047-2.245-15.139-2.36-15.542L43.824 0l-6.745 4.104z" fill="#ECDFCE"/><path d="M18.383 51.177v-6.094h15.234v6.094H18.383zm18.281 0v-6.094H52v6.094H36.664zm-18.281-9.141v-6.094h15.234v6.094H18.383zm18.281 0v-6.094H52v6.094H36.664zm0-9.141v-6.093H52v6.093H36.664zM0 51.177v-6.094h15.336v6.094H0z" fill="#BE925A"/></svg>