<?xml version="1.0" encoding="utf-8"?><svg viewBox="0 0 76 68" xmlns="http://www.w3.org/2000/svg" xmlns:xlink="http://www.w3.org/1999/xlink"><style>:root>svg{display:none}:root>svg:target{display:block}</style><svg fill="none" viewBox="0 0 9 16" id="icon-arrow-left" xmlns="http://www.w3.org/2000/svg"><path d="M.293 8.707a1 1 0 010-1.414L6.657.929A1 1 0 018.07 2.343L2.414 8l5.657 5.657a1 1 0 11-1.414 1.414L.293 8.707zM2 9H1V7h1v2z" fill="#BE925A"/></svg><svg fill="none" viewBox="0 0 9 16" id="icon-arrow-right" xmlns="http://www.w3.org/2000/svg"><path d="M8.707 8.707a1 1 0 000-1.414L2.343.929A1 1 0 00.93 2.343L6.586 8 .929 13.657a1 1 0 101.414 1.414l6.364-6.364zM7 9h1V7H7v2z" fill="#BE925A"/></svg><svg fill="none" viewBox="0 0 45 45" id="icon-authors-courses-01" xmlns="http://www.w3.org/2000/svg"><path opacity=".3" d="M22.5 8.37c.728 0 1.318-.59 1.318-1.318V2.698a1.318 1.318 0 00-2.636 0v4.354c0 .729.59 1.319 1.318 1.319zM28.652 10.608c.338 0 .675-.128.933-.386L33.1 6.707a1.318 1.318 0 00-1.864-1.865L27.72 8.358a1.318 1.318 0 00.932 2.25zM15.415 10.222a1.315 1.315 0 001.865 0 1.318 1.318 0 000-1.864l-3.516-3.516A1.318 1.318 0 0011.9 6.707l3.515 3.515zM34.342 20.013l-5.118-5.118a5.273 5.273 0 00-3.73-1.544H17.49a7.422 7.422 0 00-5.283 2.188l-.421.421-.027.027H1.319c-.729 0-1.319.59-1.319 1.319v14.062c0 .728.59 1.318 1.318 1.318h6.573l3.13 3.13c.247.247.582.386.932.386h1.194a5.541 5.541 0 01-.838-2.247 5.591 5.591 0 01-2.555-1.727 5.61 5.61 0 01.69-7.894l5.011-4.204H25.46c.35 0 .685.139.932.386l3.681 3.68c1.183 1.183 3.143 1.208 4.305.006a2.992 2.992 0 00-.036-4.189z" fill="#BE925A"/><path d="M45 20.03c0-.728-.59-1.318-1.319-1.318h-6.984a5.632 5.632 0 01-.491 7.391 5.587 5.587 0 01-3.978 1.646 5.587 5.587 0 01-3.977-1.646l-3.337-3.337h-8.746l-1.036.87-3.344 2.806a2.966 2.966 0 103.813 4.544 2.966 2.966 0 003.813 4.545 2.966 2.966 0 103.814 4.545l2.335-1.96-.315.265a2.966 2.966 0 103.813 4.545l8.956-7.515h5.665c.728 0 1.318-.59 1.318-1.318V20.03z" fill="#BE925A"/></svg><svg fill="none" viewBox="0 0 47 47" id="icon-authors-courses-02" xmlns="http://www.w3.org/2000/svg"><path fill-rule="evenodd" clip-rule="evenodd" d="M22.226 10.37c-4.493.459-8.368 3.105-10.474 7.15-1.67 3.207-1.896 7.052-.625 10.592 1.554 4.329 5.64 7.698 10.242 8.444 1.157.188 3.196.188 4.348.002 5.068-.822 9.291-4.689 10.642-9.743.425-1.593.517-3.9.22-5.577-.85-4.809-4.3-8.759-8.985-10.29-1.613-.527-3.685-.75-5.368-.578zm1.758 5.183c.352.188.395.619.395 3.933v3.217h2.993c3.047 0 3.264.023 3.54.383.192.25.144.661-.11.957l-.237.275H23.188l-.237-.275-.236-.274V15.938l.24-.24c.255-.255.706-.318 1.03-.145z" fill="#BE925A"/><path fill-rule="evenodd" clip-rule="evenodd" d="M20.755.01l-.24 2.417c-.281 2.85-.223 2.737-1.578 3.083-1.664.424-3.29 1.11-4.983 2.105-1.066.625-1.017.643-3.15-1.117l-1.841-1.52-1.982 1.98C5.274 8.665 5.018 8.96 5.127 9.09c.239.283 1.98 2.401 2.442 2.97.586.723.594.97.058 1.883-.984 1.677-1.58 3.068-2.09 4.883-.23.82-.355 1.109-.544 1.247-.195.144-.68.22-2.398.381-1.185.111-2.253.223-2.375.249l-.22.046v2.79c0 1.533.011 2.788.024 2.789.014 0 1.098.107 2.41.237 2.821.28 2.725.234 3.046 1.46a18.35 18.35 0 002.06 4.91c.447.745.526.958.5 1.344-.006.092-.697.992-1.535 2l-1.523 1.833 1.939 1.94c1.066 1.067 1.984 1.94 2.04 1.94.057 0 .895-.659 1.862-1.465.967-.806 1.88-1.492 2.029-1.526.21-.047.447.043 1.077.41 1.657.965 3.425 1.723 4.896 2.099 1.102.28 1.319.41 1.43.85.05.202.164 1.182.253 2.178s.186 1.955.216 2.13l.055.318h5.618l.216-2.326c.248-2.677.264-2.72 1.105-2.976.29-.089.91-.276 1.377-.416 1.23-.37 2.363-.867 3.6-1.576 1.275-.733 1.372-.77 1.696-.646.135.051 1.018.735 1.963 1.52.944.784 1.754 1.426 1.8 1.426.045 0 .959-.877 2.03-1.95l1.95-1.95-1.422-1.702c-.782-.936-1.473-1.796-1.534-1.91-.195-.366-.124-.643.384-1.487.873-1.45 1.551-3.083 2.144-5.157.11-.382.282-.77.384-.863.144-.13.621-.21 2.13-.356 1.07-.104 2.133-.214 2.362-.246l.418-.057-.026-2.808-.026-2.808-2.35-.225c-2.817-.27-2.661-.185-3.081-1.69-.501-1.794-1.103-3.21-2.01-4.731-.454-.762-.545-.985-.494-1.216.035-.163.687-1.033 1.525-2.037C41.342 9.833 42 9 42.002 8.946c0-.055-.869-.968-1.932-2.029l-1.934-1.93-1.469 1.232c-2.47 2.07-2.422 2.05-3.426 1.44-1.518-.922-3.099-1.6-4.985-2.134-.817-.232-1.11-.36-1.244-.546-.14-.192-.224-.73-.401-2.592l-.224-2.35L23.572.01c-1.548-.015-2.816-.015-2.817 0zm4.233 8.736c1.992.134 4.292.897 6.294 2.09 1.869 1.112 3.848 3.091 4.965 4.964 1.492 2.503 2.145 4.858 2.145 7.735 0 3.518-1.092 6.595-3.317 9.357-2.3 2.853-5.625 4.744-9.376 5.332-1.416.223-3.774.156-5.174-.146-5.076-1.093-9.183-4.636-10.957-9.452-1.126-3.054-1.201-6.566-.207-9.618 1.087-3.34 3.257-6.136 6.265-8.073 1.269-.817 3.379-1.659 4.984-1.99.846-.174 2.598-.325 3.231-.279l1.147.08z" fill="#ECDFCE"/></svg><svg fill="none" viewBox="0 0 24 25" id="icon-close" xmlns="http://www.w3.org/2000/svg"><rect x="2.121" y="1" width="30" height="3" rx="1.5" transform="rotate(45 2.121 1)" fill="#B1B1B1"/><rect y="22" width="30" height="3" rx="1.5" transform="rotate(-45 0 22)" fill="#B1B1B1"/></svg><svg fill="none" viewBox="0 0 68 68" id="icon-done" xmlns="http://www.w3.org/2000/svg"><mask id="fa" fill="#fff"><path fill-rule="evenodd" clip-rule="evenodd" d="M34 68c18.778 0 34-15.222 34-34S52.778 0 34 0 0 15.222 0 34s15.222 34 34 34zm13.705-39.29a1 1 0 10-1.41-1.42L32.62 40.885a1 1 0 01-1.412-.002l-8.5-8.512a1 1 0 00-1.416 1.414l8.5 8.51a3 3 0 004.238.009l13.675-13.594z"/></mask><path fill-rule="evenodd" clip-rule="evenodd" d="M34 68c18.778 0 34-15.222 34-34S52.778 0 34 0 0 15.222 0 34s15.222 34 34 34zm13.705-39.29a1 1 0 10-1.41-1.42L32.62 40.885a1 1 0 01-1.412-.002l-8.5-8.512a1 1 0 00-1.416 1.414l8.5 8.51a3 3 0 004.238.009l13.675-13.594z" fill="#BE925A"/><path d="M47.705 28.71l-1.41-1.42 1.41 1.42zm-1.41-1.42l-1.41-1.418 1.41 1.419zM32.62 40.885l-1.41-1.418 1.41 1.418zm-1.412-.002l1.415-1.414-1.415 1.413zm-8.5-8.512l1.415-1.413-1.415 1.413zm-1.415 0l-1.413-1.416 1.413 1.415zm0 1.414l-1.416 1.413 1.415-1.413zm8.5 8.51l1.415-1.412-1.416 1.413zm4.237.009l-1.41-1.419 1.41 1.419zM66 34c0 17.673-14.327 32-32 32v4c19.882 0 36-16.118 36-36h-4zM34 2c17.673 0 32 14.327 32 32h4C70 14.118 53.882-2 34-2v4zM2 34C2 16.327 16.327 2 34 2v-4C14.118-2-2 14.118-2 34h4zm32 32C16.327 66 2 51.673 2 34h-4c0 19.882 16.118 36 36 36v-4zm12.29-37.295a1 1 0 01.005-1.414l2.82 2.837a3 3 0 00.013-4.243l-2.837 2.82zm1.415.004a1 1 0 01-1.414-.004l2.837-2.82a3 3 0 00-4.243-.013l2.82 2.837zM34.03 42.303l13.675-13.594-2.82-2.837L31.21 39.466l2.82 2.837zm-4.238-.008a3 3 0 004.238.008l-2.82-2.837a1 1 0 011.413.002l-2.83 2.827zm-8.5-8.511l8.5 8.51 2.83-2.826-8.5-8.511-2.83 2.827zm1.415 0a1 1 0 01-1.415 0l2.83-2.827a3 3 0 00-4.242-.003l2.827 2.83zm0-1.414a1 1 0 010 1.415l-2.827-2.83a3 3 0 00-.003 4.242l2.83-2.827zm8.5 8.512l-8.5-8.512-2.83 2.827 8.5 8.511 2.83-2.826zm1.413.002a1 1 0 01-1.412-.002l-2.83 2.826a5 5 0 007.062.013l-2.82-2.837zm13.675-13.593L32.62 40.884l2.82 2.837 13.675-13.593-2.82-2.837z" fill="#BE925A" mask="url(#fa)"/></svg><svg fill="none" viewBox="0 0 20 20" id="icon-instagram" xmlns="http://www.w3.org/2000/svg"><g clip-path="url(#gclip0_184_808)" fill="#000"><path d="M19.98 5.88c-.046-1.063-.218-1.793-.464-2.426a4.88 4.88 0 00-1.157-1.774 4.922 4.922 0 00-1.77-1.153C15.952.281 15.226.11 14.163.063 13.093.012 12.753 0 10.037 0 7.322 0 6.982.012 5.915.059 4.853.105 4.122.277 3.49.523A4.88 4.88 0 001.715 1.68 4.924 4.924 0 00.563 3.45C.316 4.087.145 4.813.098 5.876c-.051 1.07-.063 1.41-.063 4.126 0 2.715.012 3.055.059 4.122.047 1.063.219 1.793.465 2.426a4.932 4.932 0 001.156 1.774c.5.508 1.106.902 1.77 1.152.637.247 1.364.419 2.426.465 1.067.047 1.407.059 4.122.059 2.716 0 3.056-.012 4.122-.059 1.063-.046 1.793-.218 2.426-.464a5.116 5.116 0 002.927-2.927c.246-.637.418-1.364.465-2.426.047-1.067.058-1.407.058-4.122s-.004-3.055-.05-4.122zm-1.8 8.166c-.044.977-.208 1.504-.345 1.856a3.317 3.317 0 01-1.898 1.898c-.352.137-.883.301-1.856.344-1.055.047-1.371.059-4.04.059-2.668 0-2.989-.012-4.04-.059-.977-.043-1.504-.207-1.856-.344a3.077 3.077 0 01-1.148-.746 3.11 3.11 0 01-.747-1.148c-.136-.352-.3-.883-.343-1.856-.047-1.055-.059-1.372-.059-4.04 0-2.669.012-2.99.059-4.04.043-.977.207-1.504.343-1.856A3.04 3.04 0 013 2.965a3.105 3.105 0 011.15-.746c.35-.137.882-.3 1.855-.344 1.055-.046 1.372-.058 4.04-.058 2.672 0 2.989.012 4.04.058.977.043 1.504.207 1.856.344.433.16.828.414 1.148.746.332.325.586.715.747 1.15.136.35.3.882.343 1.855.047 1.055.059 1.371.059 4.04 0 2.668-.012 2.98-.059 4.036z"/><path d="M10.037 4.864A5.139 5.139 0 004.9 10.002a5.139 5.139 0 105.138-5.138zm0 8.47a3.333 3.333 0 11.001-6.666 3.333 3.333 0 010 6.667zM16.578 4.661a1.2 1.2 0 11-2.4 0 1.2 1.2 0 012.4 0z"/></g><defs><clipPath id="gclip0_184_808"><path fill="#fff" d="M0 0h20v20H0z"/></clipPath></defs></svg><svg fill="none" viewBox="0 0 60 60" id="icon-play" xmlns="http://www.w3.org/2000/svg"><circle cx="30" cy="30" r="29" stroke="#BE925A" stroke-width="2"/><path d="M24.25 21.407L40 30.5l-15.75 9.093V21.407z" stroke="#BE925A" stroke-width="2"/></svg><svg fill="none" viewBox="0 0 76 56" id="icon-quote-bottom" xmlns="http://www.w3.org/2000/svg"><path d="M22.92.72C13.8.72 6.28 7.44 6.28 17.36c0 5.12 2.4 9.44 6.24 12L.36 55.12H16.2l15.84-25.76c4-6.08 5.44-9.6 5.44-14.24 0-8.48-5.92-14.4-14.56-14.4zm37.76 0c-9.12 0-16.64 6.72-16.64 16.64 0 5.12 2.4 9.44 6.24 12L38.12 55.12h15.84L69.8 29.36c4-6.08 5.44-9.6 5.44-14.24 0-8.48-5.92-14.4-14.56-14.4z" fill="#BE925A"/></svg><svg fill="none" viewBox="0 0 75 55" id="icon-quote-top" xmlns="http://www.w3.org/2000/svg"><path d="M21.44 0l-16 25.76C1.6 31.84 0 35.36 0 40c0 8.48 6.08 14.4 14.56 14.4 9.12 0 16.64-6.72 16.64-16.64 0-5.12-2.4-9.44-6.24-12L37.12 0H21.44zm41.28 25.76L74.88 0H59.2l-16 25.76c-3.84 6.08-5.44 9.6-5.44 14.24 0 8.48 6.08 14.4 14.56 14.4 9.12 0 16.64-6.72 16.64-16.64 0-5.12-2.4-9.44-6.24-12z" fill="#BE925A"/></svg><svg fill="none" viewBox="0 0 30 30" id="icon-socials-instagram" xmlns="http://www.w3.org/2000/svg"><g clip-path="url(#kclip0_202_453)" fill="currentColor"><path d="M15 17.37a2.37 2.37 0 100-4.74 2.37 2.37 0 000 4.74z"/><path d="M18.032 9.01h-6.064a2.96 2.96 0 00-2.96 2.96v6.062a2.96 2.96 0 002.96 2.96h6.064a2.96 2.96 0 002.96-2.96v-6.064a2.96 2.96 0 00-2.96-2.958zM15 18.88a3.88 3.88 0 11-.004-7.761A3.88 3.88 0 0115 18.88zm3.902-6.801a.958.958 0 11-.005-1.917.958.958 0 01.005 1.917z"/><path d="M15 0a15 15 0 100 30 15 15 0 000-30zm7.5 18.032a4.472 4.472 0 01-4.468 4.468h-6.064A4.474 4.474 0 017.5 18.032v-6.064A4.474 4.474 0 0111.968 7.5h6.064a4.474 4.474 0 014.468 4.468v6.064z"/></g><defs><clipPath id="kclip0_202_453"><path fill="#fff" d="M0 0h30v30H0z"/></clipPath></defs></svg><svg fill="none" viewBox="0 0 30 30" id="icon-socials-telegram" xmlns="http://www.w3.org/2000/svg"><path fill-rule="evenodd" clip-rule="evenodd" d="M13.6.035C8.5.527 3.947 3.613 1.64 8.142.824 9.743.342 11.287.078 13.144c-.117.824-.1 2.954.031 3.872.233 1.63.714 3.175 1.451 4.66a14.866 14.866 0 006.752 6.746 15.014 15.014 0 0014.907-.862c1.746-1.14 3.4-2.828 4.53-4.623.429-.683 1.077-2.01 1.371-2.808.297-.805.643-2.202.771-3.113.13-.923.148-3.059.032-3.872-.347-2.436-1.12-4.51-2.403-6.447a14.16 14.16 0 00-1.85-2.256C23.327 2.075 20.414.607 17.083.115 16.366.01 14.348-.037 13.6.035zM24.02 7.84c.19.117.374.423.374.626 0 .154-2.923 13.08-3.004 13.287-.144.365-.685.628-1.073.521-.11-.03-1.216-.744-2.458-1.586-1.242-.843-2.277-1.532-2.298-1.532-.022 0-.52.457-1.107 1.015-1.354 1.285-1.338 1.273-1.693 1.273-.243 0-.317-.029-.488-.19-.181-.172-.28-.424-1.005-2.567-.442-1.307-.833-2.406-.87-2.444-.035-.037-1.056-.336-2.266-.664-1.983-.538-2.218-.614-2.363-.77a.543.543 0 01-.162-.346c0-.416-.146-.354 6.194-2.632 3.229-1.16 7.112-2.558 8.63-3.105A236.22 236.22 0 0123.308 7.7c.183-.048.51.016.712.14zm-7.989 5.187c-2.613 1.5-4.772 2.76-4.798 2.8a.526.526 0 00-.048.225c0 .203 1.259 3.886 1.339 3.912.076.025.094-.078.247-1.424.066-.58.133-1.115.148-1.187.019-.087 1.387-1.24 4.064-3.426 2.22-1.812 4.055-3.324 4.079-3.36.08-.117.016-.24-.133-.253-.1-.009-1.633.84-4.898 2.713z" fill="currentColor"/></svg><svg fill="none" viewBox="0 0 30 30" id="icon-socials-youtube" xmlns="http://www.w3.org/2000/svg"><g clip-path="url(#mclip0_202_447)" fill="currentColor"><path d="M12.92 17.42l4.16-2.414-4.16-2.426v4.84z"/><path d="M15 0a15 15 0 100 30 15 15 0 000-30zm7.895 17.655a2.985 2.985 0 01-2.986 2.988h-9.817a2.986 2.986 0 01-2.987-2.988v-5.31a2.987 2.987 0 012.986-2.988h9.818a2.986 2.986 0 012.986 2.988v5.31z"/></g><defs><clipPath id="mclip0_202_447"><path fill="#fff" d="M0 0h30v30H0z"/></clipPath></defs></svg></svg>